<svg version="1.1" id="Layer_1" xmlns="http://www.w3.org/2000/svg" xmlns:xlink="http://www.w3.org/1999/xlink" x="0px" y="0px"
	 width="100%" viewBox="0 0 1024 1024" enable-background="new 0 0 1024 1024" xml:space="preserve">
<path fill="#FEFDF7" opacity="1.000000" stroke="none" 
	d="
M672.000000,1025.000000 
	C448.000000,1025.000000 224.500000,1025.000000 1.000000,1025.000000 
	C1.000000,683.666687 1.000000,342.333344 1.000000,1.000000 
	C342.333344,1.000000 683.666687,1.000000 1025.000000,1.000000 
	C1025.000000,342.333344 1025.000000,683.666687 1025.000000,1025.000000 
	C907.500000,1025.000000 790.000000,1025.000000 672.000000,1025.000000 
M604.485107,598.214905 
	C603.956909,598.735291 603.428772,599.255737 602.238892,599.978271 
	C599.079956,602.091187 595.921021,604.204163 592.133911,606.475647 
	C591.820312,607.372986 591.506775,608.270325 591.333984,609.797058 
	C591.538269,609.864197 591.742493,609.931335 592.216248,610.537598 
	C593.503418,610.753967 594.790649,610.970337 596.960754,611.458618 
	C611.290344,611.501526 625.621216,611.656067 639.948181,611.480591 
	C642.422058,611.450317 645.547241,610.722717 647.232666,609.119690 
	C656.729187,600.087646 665.877686,590.689697 675.724915,581.136658 
	C676.193298,580.440002 676.661621,579.743408 677.721069,578.745117 
	C680.163208,575.206665 682.605347,571.668274 685.610840,567.821350 
	C686.093018,566.887512 686.575256,565.953674 687.623169,564.707458 
	C688.442139,563.210144 689.261169,561.712769 690.643921,559.889160 
	C691.122803,558.935608 691.601624,557.981995 692.654602,556.660522 
	C698.033020,544.773743 703.411377,532.886902 709.135315,520.427002 
	C709.207153,519.993103 709.278992,519.559204 709.813843,518.559570 
	C712.505249,507.027344 715.196655,495.495117 718.243774,483.444122 
	C718.339844,482.627350 718.435913,481.810577 718.830383,480.169708 
	C719.221313,475.446808 719.612244,470.723938 720.291077,465.239563 
	C720.184265,457.493073 720.077454,449.746552 720.141724,441.110809 
	C719.083557,433.073883 718.025452,425.036957 717.081299,416.261292 
	C716.711792,414.844208 716.342224,413.427124 716.074463,411.238434 
	C715.874878,410.495148 715.675293,409.751831 715.537720,408.385529 
	C715.176880,407.199005 714.816040,406.012482 714.441162,404.029663 
	C713.537842,401.020844 712.634521,398.012024 711.771301,394.360168 
	C711.435730,393.573853 711.100159,392.787537 710.832764,391.360321 
	C710.505371,390.573914 710.177917,389.787537 709.900696,388.282257 
	C709.229248,386.535583 708.557800,384.788910 707.927002,382.382446 
	C707.565857,381.588531 707.204712,380.794617 706.913147,379.419098 
	C706.614502,378.943695 706.315918,378.468323 706.032471,377.268738 
	C705.266052,375.514099 704.499634,373.759460 703.764954,371.445862 
	C703.470947,370.978210 703.176941,370.510559 702.882446,369.382874 
	C702.266052,368.251434 701.649597,367.120026 701.039185,365.392426 
	C700.726501,364.916107 700.413818,364.439789 700.060303,363.246918 
	C699.127686,361.577301 698.195068,359.907654 697.191833,357.626892 
	C696.448975,356.421875 695.706177,355.216858 694.923645,353.421875 
	C694.554199,352.969696 694.184753,352.517517 693.768799,351.424866 
	C693.271667,350.743225 692.774475,350.061615 692.120911,348.749084 
	C690.130615,345.721802 688.140320,342.694519 686.006226,339.008636 
	C683.882812,336.006805 681.759399,333.005005 679.482422,329.422699 
	C678.687317,328.542267 677.892151,327.661804 676.958984,326.123047 
	C674.091675,322.705414 671.224426,319.287811 668.098938,315.229919 
	C650.083679,294.883453 628.686035,279.028168 603.836670,266.719971 
	C598.887878,264.566132 593.939087,262.412323 588.324524,259.870789 
	C586.881104,259.605743 585.437744,259.340668 583.294006,258.894287 
	C581.918579,258.128815 580.627319,257.040375 579.152588,256.655731 
	C573.783142,255.255203 568.342224,254.132065 562.947632,252.824203 
	C557.608765,251.529831 552.293457,250.138535 546.409485,248.354156 
	C545.943237,248.345200 545.476990,248.336227 544.240723,248.013138 
	C540.136902,247.491516 536.046387,246.800064 531.927002,246.477432 
	C513.395325,245.026031 494.900391,244.593796 476.486420,249.198013 
	C476.486420,249.198013 476.313385,249.195511 475.571869,249.025772 
	C475.087463,249.154846 474.603088,249.283920 473.391907,249.354187 
	C472.468628,249.646011 471.545349,249.937836 469.801270,250.123413 
	C456.542603,254.448456 443.283936,258.773499 429.302124,263.124420 
	C426.619354,264.436432 423.910950,265.698792 421.257874,267.068420 
	C400.701111,277.680664 381.899994,290.718475 365.197876,307.596466 
	C364.713196,308.168579 364.228546,308.740662 363.161072,309.594543 
	C362.792236,310.113098 362.423370,310.631683 361.472107,311.386902 
	C360.800354,312.180695 360.128632,312.974457 358.919067,314.066589 
	C358.171173,315.035492 357.423279,316.004395 356.110168,317.268951 
	C345.132324,330.494110 334.944153,344.325684 327.661011,359.930634 
	C293.354523,433.435913 298.781982,504.095673 343.534393,571.712036 
	C345.908051,575.298340 348.852936,578.546021 351.829315,581.667725 
	C352.625977,582.503296 355.240173,583.012329 355.806671,582.449646 
	C364.022186,574.289429 372.030945,565.921021 380.037140,557.656128 
	C378.052704,554.808228 376.695709,552.931152 375.410736,551.006042 
	C356.715576,522.997986 345.605469,492.592865 344.614502,458.551392 
	C343.372772,415.895508 356.272552,378.235504 383.286041,345.483551 
	C397.475983,328.279327 414.445435,314.110138 434.616852,303.171906 
	C435.091125,302.823975 435.565369,302.476044 436.764160,302.063080 
	C445.362885,298.324707 453.961578,294.586304 463.095825,290.929474 
	C463.399689,290.761627 463.703583,290.593781 464.705048,290.349365 
	C465.135010,290.171448 465.564941,289.993530 466.567413,289.880646 
	C467.057098,289.622437 467.546783,289.364227 468.818024,289.130615 
	C477.873596,287.157318 486.929169,285.183990 496.470886,283.445007 
	C496.977570,283.288635 497.484222,283.132263 498.869141,283.151672 
	C501.242401,282.962952 503.615631,282.774261 506.664337,282.760742 
	C507.114136,282.667542 507.563965,282.574341 508.915466,282.695770 
	C512.941223,282.695221 516.967041,282.694641 521.746948,282.955719 
	C524.178711,283.017975 526.610413,283.080200 529.763489,283.507782 
	C532.176453,283.696625 534.589417,283.885498 537.635742,284.506134 
	C541.057617,285.193634 544.482178,285.867889 547.900879,286.570801 
	C567.368958,290.573517 584.857727,299.362152 602.308228,309.429352 
	C602.801880,309.646698 603.295532,309.864075 604.137329,310.664856 
	C606.761902,312.432373 609.386536,314.199921 612.284729,316.505096 
	C613.125183,317.027740 613.965698,317.550385 615.100525,318.664093 
	C616.014526,319.269592 616.928528,319.875061 617.994690,320.864197 
	C618.202026,321.090424 618.454590,321.166473 619.079346,321.698029 
	C621.811768,324.124420 624.533630,326.562866 627.278442,328.975159 
	C640.088623,340.233215 650.199829,353.828400 659.510681,367.894257 
	C664.375305,375.243225 667.227905,383.923981 670.972900,392.720520 
	C671.672180,394.480194 672.371460,396.239868 673.000427,398.586151 
	C673.265747,399.085175 673.531067,399.584198 673.802673,400.865479 
	C675.299561,406.575897 676.796387,412.286285 678.189270,418.681610 
	C678.506104,419.787506 678.822998,420.893433 679.051758,422.815216 
	C679.588989,425.538391 680.126221,428.261536 680.557617,431.797241 
	C681.055969,441.531494 681.554260,451.265717 681.822632,461.838104 
	C681.707092,463.846771 681.591492,465.855469 681.238037,468.366577 
	C681.268799,468.912506 681.299561,469.458405 681.052979,470.719879 
	C681.055481,471.480042 681.057983,472.240204 680.802002,473.566437 
	C680.734558,474.381989 680.667114,475.197571 680.192505,476.766022 
	C678.188599,485.511078 676.184692,494.256165 673.787476,503.588776 
	C673.512939,504.721710 673.238403,505.854645 672.476013,507.380615 
	C672.286438,508.180603 672.096863,508.980621 671.381287,510.257568 
	C671.124878,511.164429 670.868530,512.071289 670.149658,513.458191 
	C669.039612,516.466614 667.929565,519.475037 666.281189,522.928589 
	C665.581970,524.619568 664.882690,526.310547 663.719299,528.538086 
	C658.146179,537.694824 652.573059,546.851624 646.419739,556.304810 
	C645.049744,558.205078 643.679688,560.105347 641.763123,562.430176 
	C637.140686,567.528198 632.518250,572.626282 627.269287,577.963074 
	C626.053162,579.263123 624.837036,580.563171 623.033386,582.082336 
	C622.023743,583.145203 621.014099,584.208130 619.440552,585.451782 
	C618.643250,586.306458 617.845947,587.161072 616.405029,588.216858 
	C613.568848,590.720825 610.732605,593.224792 607.303284,595.906128 
	C606.581848,596.623535 605.860413,597.340881 605.056702,598.033936 
	C605.056702,598.033936 605.049927,598.119446 604.485107,598.214905 
M646.837952,436.259979 
	C647.928589,430.406250 649.871704,424.565125 649.958557,418.696564 
	C650.290466,396.269135 640.677673,377.869934 625.532776,361.994690 
	C624.288147,360.690063 622.793579,359.216400 621.160339,358.784149 
	C618.630371,358.114594 614.830872,357.135162 613.489197,358.371002 
	C611.801819,359.925354 611.025269,363.851898 611.669067,366.272614 
	C613.112244,371.699432 616.025757,376.719818 617.695312,382.105713 
	C619.749207,388.731079 621.936035,395.479095 622.637268,402.320465 
	C623.620483,411.912079 618.172974,418.256592 608.722534,419.892700 
	C605.316711,420.482361 601.748413,420.558075 598.289001,420.333282 
	C587.807129,419.652191 578.317993,415.768646 568.907532,411.305664 
	C549.084229,401.904175 529.399231,392.074585 509.036194,383.984467 
	C487.286041,375.343231 464.347534,373.005463 441.286560,378.389038 
	C407.857513,386.193024 387.565796,408.705536 375.197968,439.442261 
	C373.293488,444.175354 372.204071,449.321808 371.398224,454.382294 
	C370.838531,457.897034 371.692444,461.561218 375.665710,463.083771 
	C379.333038,464.489105 381.626678,462.042755 383.743683,459.598358 
	C388.869720,453.679504 393.795868,447.579193 399.091797,441.817871 
	C406.230957,434.051361 414.054535,427.094177 423.978699,422.933075 
	C445.385223,413.957520 467.186676,424.561096 471.596191,446.478912 
	C472.696777,451.949310 472.837128,457.778015 472.402557,463.362976 
	C470.702454,485.212128 463.105804,505.217529 451.785980,523.764282 
	C433.352112,553.966980 408.026184,577.804077 379.981079,598.756104 
	C364.268890,610.494507 347.483582,620.790588 331.346252,631.973877 
	C329.501251,633.252502 327.495667,636.200623 327.711151,638.135559 
	C328.099640,641.624207 331.507996,642.319824 334.756012,641.986511 
	C339.227112,641.527588 343.726288,641.206787 348.152008,640.462036 
	C388.489960,633.673828 426.830078,620.559631 463.952545,603.649292 
	C492.917511,590.454956 518.789490,572.277405 544.474670,553.767151 
	C549.000732,550.505432 554.015930,547.579773 559.239990,545.720520 
	C565.072571,543.644836 569.642944,547.579102 569.207642,553.746155 
	C568.966187,557.166809 567.984497,560.641846 566.748352,563.867004 
	C561.748718,576.911438 553.806519,588.182434 545.241272,599.093079 
	C542.926147,602.042114 540.776917,605.392639 539.622620,608.910400 
	C538.288940,612.974915 541.560791,615.783752 545.629333,614.401733 
	C548.593506,613.394714 551.561707,612.090332 554.155884,610.360352 
	C562.599182,604.729797 571.084656,599.124084 579.165710,592.996826 
	C596.838562,579.596985 612.258789,564.063721 623.021545,544.389404 
	C636.700745,519.383850 627.534119,494.558655 600.750366,485.923950 
	C592.822327,483.368042 584.101501,482.429016 575.718445,482.290253 
	C553.885254,481.928833 533.970093,489.663422 514.435181,498.464813 
	C512.758240,499.220367 511.066162,499.942322 509.381104,500.679871 
	C508.942261,500.125366 508.503418,499.570862 508.064606,499.016388 
	C515.747803,490.576294 522.794189,481.422852 531.262634,473.862244 
	C544.161804,462.345795 559.802551,458.674866 576.916565,461.715973 
	C582.484802,462.705444 588.042114,463.822968 593.649780,464.512421 
	C612.529053,466.833527 637.407959,458.881134 646.837952,436.259979 
M707.203552,648.519714 
	C704.318542,644.411987 700.065613,643.295715 695.398010,643.251892 
	C686.404724,643.167542 677.398865,642.873779 668.421204,643.236694 
	C662.581421,643.472656 657.738953,641.978394 653.242004,638.328796 
	C649.074890,634.947021 644.566345,632.809998 638.714050,632.876099 
	C610.570190,633.194031 582.419067,633.256226 554.275513,632.950073 
	C547.215454,632.873230 541.207458,634.299133 535.880737,638.870728 
	C532.052673,642.156067 527.635071,643.221191 522.506836,643.195618 
	C487.198700,643.019653 451.889160,643.089783 416.580170,643.138367 
	C413.939178,643.141968 411.232056,643.303650 408.671143,643.893311 
	C402.194427,645.384705 398.523529,650.484985 399.200775,656.589539 
	C399.899109,662.884766 403.629639,665.725647 411.181274,665.697021 
	C428.667999,665.630737 446.154755,665.501709 463.641479,665.500183 
	C540.921570,665.493469 618.201721,665.533264 695.481812,665.527344 
	C706.519958,665.526489 711.312744,658.990417 707.203552,648.519714 
M316.605988,713.450500 
	C316.392456,714.740234 315.996582,716.029297 315.992279,717.319702 
	C315.904480,743.611267 315.872162,769.902832 315.800781,796.194458 
	C315.786041,801.612915 317.718323,803.664917 323.301239,803.717102 
	C332.120697,803.799500 340.942230,803.902649 349.760498,803.797729 
	C356.232147,803.720703 362.785736,803.897156 369.150787,802.944702 
	C380.451385,801.253662 389.641846,792.278381 391.882477,781.798279 
	C394.067963,771.576172 389.620331,762.230591 379.234497,755.261780 
	C378.882233,755.025391 378.430420,754.937378 377.858490,754.715698 
	C387.580505,748.373230 390.749786,740.288452 387.903534,730.364258 
	C384.754486,719.384460 373.961945,711.319580 361.504425,711.110901 
	C348.361023,710.890686 335.210815,710.984192 322.065125,711.108459 
	C320.402649,711.124146 318.749756,712.157593 316.605988,713.450500 
M669.984619,802.627563 
	C685.646423,797.054810 696.013000,786.227539 701.061218,770.514099 
	C711.967224,736.567383 680.745789,702.298340 645.688049,709.585388 
	C615.172668,715.928162 597.991272,747.481506 610.025330,775.429260 
	C617.452148,792.677307 638.457275,811.352417 669.984619,802.627563 
M498.006134,712.350769 
	C492.480286,711.890320 486.961609,711.215576 481.426544,711.029907 
	C475.943756,710.846008 474.188568,712.930969 474.211700,718.573547 
	C474.275238,734.067322 474.446075,749.562195 474.320770,765.054626 
	C474.236328,775.492065 465.784851,781.745422 455.645752,779.233276 
	C448.258301,777.402893 444.058441,771.916992 443.997437,763.299622 
	C443.890137,748.139954 444.056824,732.978516 444.031189,717.817993 
	C444.022461,712.657349 442.262848,710.999573 437.136627,710.962585 
	C433.304962,710.934998 429.472382,710.920288 425.641174,710.971985 
	C420.094452,711.046875 418.425171,712.650574 418.435852,718.068176 
	C418.466766,733.728455 418.952728,749.399231 418.532471,765.046326 
	C417.923706,787.712402 438.617157,806.720337 462.689789,804.905396 
	C483.792053,803.314453 498.365692,789.559509 499.226807,769.147156 
	C499.963593,751.680969 499.675018,734.170654 499.746979,716.679382 
	C499.752075,715.446533 498.989258,714.210571 498.006134,712.350769 
M515.233032,310.662567 
	C506.854675,315.903320 501.820892,323.344055 500.306763,333.158508 
	C497.888824,348.831696 508.621613,364.772614 524.291016,368.705444 
	C539.618958,372.552551 556.363708,363.445221 561.458618,348.490356 
	C565.818665,335.692169 562.250977,322.748291 551.871643,313.708466 
	C542.319336,305.388947 528.450073,304.070892 515.233032,310.662567 
M568.454834,711.007507 
	C566.621826,711.012329 564.788879,711.013428 562.955872,711.022583 
	C555.499939,711.059814 554.785767,711.903503 554.840698,719.432617 
	C554.959900,735.761536 554.967346,752.091248 555.024292,768.420593 
	C555.038635,772.525818 553.800598,776.073425 549.978638,778.052185 
	C546.283691,779.965210 542.705444,779.541809 539.171326,777.141785 
	C530.377136,771.169678 530.329407,771.238098 522.513733,778.624390 
	C521.787231,779.310974 521.050964,779.990173 520.363708,780.714844 
	C515.652466,785.682922 515.597534,789.217896 520.833923,793.834229 
	C531.752380,803.459656 544.239990,807.427307 558.235535,801.773560 
	C571.747681,796.315186 579.731384,786.078125 580.153809,771.219604 
	C580.665100,753.237427 580.527039,735.236389 580.616333,717.243164 
	C580.633423,713.803589 578.892700,711.526245 575.401489,711.065979 
	C573.435730,710.806824 571.408813,711.010864 568.454834,711.007507 
z"/>
<path fill="#020202" opacity="1.000000" stroke="none" 
	d="
M646.703979,436.618286 
	C637.407959,458.881134 612.529053,466.833527 593.649780,464.512421 
	C588.042114,463.822968 582.484802,462.705444 576.916565,461.715973 
	C559.802551,458.674866 544.161804,462.345795 531.262634,473.862244 
	C522.794189,481.422852 515.747803,490.576294 508.064606,499.016388 
	C508.503418,499.570862 508.942261,500.125366 509.381104,500.679871 
	C511.066162,499.942322 512.758240,499.220367 514.435181,498.464813 
	C533.970093,489.663422 553.885254,481.928833 575.718445,482.290253 
	C584.101501,482.429016 592.822327,483.368042 600.750366,485.923950 
	C627.534119,494.558655 636.700745,519.383850 623.021545,544.389404 
	C612.258789,564.063721 596.838562,579.596985 579.165710,592.996826 
	C571.084656,599.124084 562.599182,604.729797 554.155884,610.360352 
	C551.561707,612.090332 548.593506,613.394714 545.629333,614.401733 
	C541.560791,615.783752 538.288940,612.974915 539.622620,608.910400 
	C540.776917,605.392639 542.926147,602.042114 545.241272,599.093079 
	C553.806519,588.182434 561.748718,576.911438 566.748352,563.867004 
	C567.984497,560.641846 568.966187,557.166809 569.207642,553.746155 
	C569.642944,547.579102 565.072571,543.644836 559.239990,545.720520 
	C554.015930,547.579773 549.000732,550.505432 544.474670,553.767151 
	C518.789490,572.277405 492.917511,590.454956 463.952545,603.649292 
	C426.830078,620.559631 388.489960,633.673828 348.152008,640.462036 
	C343.726288,641.206787 339.227112,641.527588 334.756012,641.986511 
	C331.507996,642.319824 328.099640,641.624207 327.711151,638.135559 
	C327.495667,636.200623 329.501251,633.252502 331.346252,631.973877 
	C347.483582,620.790588 364.268890,610.494507 379.981079,598.756104 
	C408.026184,577.804077 433.352112,553.966980 451.785980,523.764282 
	C463.105804,505.217529 470.702454,485.212128 472.402557,463.362976 
	C472.837128,457.778015 472.696777,451.949310 471.596191,446.478912 
	C467.186676,424.561096 445.385223,413.957520 423.978699,422.933075 
	C414.054535,427.094177 406.230957,434.051361 399.091797,441.817871 
	C393.795868,447.579193 388.869720,453.679504 383.743683,459.598358 
	C381.626678,462.042755 379.333038,464.489105 375.665710,463.083771 
	C371.692444,461.561218 370.838531,457.897034 371.398224,454.382294 
	C372.204071,449.321808 373.293488,444.175354 375.197968,439.442261 
	C387.565796,408.705536 407.857513,386.193024 441.286560,378.389038 
	C464.347534,373.005463 487.286041,375.343231 509.036194,383.984467 
	C529.399231,392.074585 549.084229,401.904175 568.907532,411.305664 
	C578.317993,415.768646 587.807129,419.652191 598.289001,420.333282 
	C601.748413,420.558075 605.316711,420.482361 608.722534,419.892700 
	C618.172974,418.256592 623.620483,411.912079 622.637268,402.320465 
	C621.936035,395.479095 619.749207,388.731079 617.695312,382.105713 
	C616.025757,376.719818 613.112244,371.699432 611.669067,366.272614 
	C611.025269,363.851898 611.801819,359.925354 613.489197,358.371002 
	C614.830872,357.135162 618.630371,358.114594 621.160339,358.784149 
	C622.793579,359.216400 624.288147,360.690063 625.532776,361.994690 
	C640.677673,377.869934 650.290466,396.269135 649.958557,418.696564 
	C649.871704,424.565125 647.928589,430.406250 646.703979,436.618286 
z"/>
<path fill="#030303" opacity="1.000000" stroke="none" 
	d="
M359.456909,313.768250 
	C360.128632,312.974457 360.800354,312.180695 362.002228,311.472107 
	C362.936188,310.809113 363.340027,310.060944 363.743866,309.312775 
	C364.228546,308.740662 364.713196,308.168579 365.629059,307.816223 
	C367.720154,309.263611 369.380066,310.491241 370.498199,311.318176 
	C374.201965,306.596802 377.687103,302.154083 381.088257,297.818481 
	C384.623688,298.019135 388.545837,298.241730 392.467987,298.464325 
	C392.576019,297.903076 392.684021,297.341858 392.792023,296.780609 
	C392.057587,295.966217 391.114136,295.257355 390.637482,294.312866 
	C389.913330,292.877899 389.513092,291.279480 388.975220,289.750519 
	C390.646912,290.165680 392.891907,290.052795 393.866150,291.110443 
	C395.669800,293.068420 396.659271,293.222443 398.685547,291.430969 
	C400.479218,289.845215 402.774567,289.007324 402.573242,293.174377 
	C402.545868,293.741272 403.815918,294.527985 404.627319,294.915222 
	C405.065643,295.124420 405.804779,294.703278 406.463135,294.554047 
	C406.111725,293.362854 405.828979,292.404327 405.458344,291.147919 
	C407.073120,291.302673 408.161896,291.407013 409.201538,291.506653 
	C408.702759,289.309967 408.452301,287.222046 407.685913,285.344818 
	C407.402679,284.651062 405.905243,284.453003 404.363892,283.760223 
	C405.056427,286.002197 405.434906,287.227509 405.772888,288.321686 
	C402.310333,288.726318 399.474365,289.057709 396.366028,289.420929 
	C397.021606,282.104614 403.836395,282.857635 407.747833,279.929199 
	C412.630676,287.605530 413.293060,289.195221 412.634033,291.468201 
	C414.892670,291.657654 417.145355,291.844666 420.327423,292.108856 
	C418.502991,290.069702 417.207581,288.621857 416.012329,287.285919 
	C421.215332,285.693939 427.160156,288.834290 430.679565,282.604431 
	C430.800720,284.153717 430.621429,285.545319 430.394623,286.929108 
	C430.175446,288.266602 429.836243,289.591156 429.742401,290.934845 
	C429.729309,291.122101 431.260284,291.676239 431.329376,291.570770 
	C432.184296,290.266785 432.976685,288.905914 433.613251,287.482819 
	C433.853973,286.944672 433.652344,286.208679 433.652344,285.562866 
	C434.021851,285.464600 434.391357,285.366302 434.760895,285.268036 
	C435.807922,287.355377 436.854950,289.442749 438.053558,291.832306 
	C442.867584,293.026093 446.650635,284.750885 451.639008,289.781158 
	C453.170044,287.624603 454.102966,284.818054 455.751984,284.302704 
	C459.047729,283.272644 459.797821,286.663422 460.990936,288.939331 
	C461.365356,289.653473 462.029022,290.215973 462.560303,290.847900 
	C453.961578,294.586304 445.362885,298.324707 436.385986,301.733734 
	C435.672272,300.742188 435.336700,300.079956 434.411896,298.254852 
	C434.204834,300.808197 434.107666,302.006500 434.010498,303.204803 
	C414.445435,314.110138 397.475983,328.279327 383.286041,345.483551 
	C356.272552,378.235504 343.372772,415.895508 344.614502,458.551392 
	C345.605469,492.592865 356.715576,522.997986 375.410736,551.006042 
	C376.695709,552.931152 378.052704,554.808228 380.037140,557.656128 
	C372.030945,565.921021 364.022186,574.289429 355.806671,582.449646 
	C355.240173,583.012329 352.625977,582.503296 351.829315,581.667725 
	C348.852936,578.546021 345.908051,575.298340 343.534393,571.712036 
	C298.781982,504.095673 293.354523,433.435913 327.661011,359.930634 
	C334.944153,344.325684 345.132324,330.494110 356.786499,317.127045 
	C359.334839,316.661194 361.908600,316.772308 359.456909,313.768250 
M404.645630,303.372192 
	C405.997498,301.550049 407.349365,299.727936 408.701233,297.905792 
	C408.349579,297.546997 407.997894,297.188202 407.646210,296.829376 
	C405.088287,298.674927 402.530396,300.520477 399.972473,302.365997 
	C400.146637,302.836151 400.320770,303.306305 400.494934,303.776459 
	C401.672119,303.776459 402.849274,303.776459 404.645630,303.372192 
M395.007812,315.182251 
	C395.426483,316.449799 395.845184,317.717377 396.683105,320.254181 
	C398.795990,316.747650 399.957458,314.820099 401.118927,312.892578 
	C400.670563,312.585419 400.222198,312.278259 399.773865,311.971130 
	C398.406006,312.969971 397.038147,313.968811 395.007812,315.182251 
M424.623932,297.384094 
	C423.582458,297.215637 422.541016,297.047180 421.499573,296.878754 
	C421.540314,297.524139 421.581085,298.169556 421.621857,298.814972 
	C422.521393,298.538177 423.420929,298.261414 424.623932,297.384094 
M377.533539,315.302521 
	C378.491669,315.405151 379.449799,315.507782 380.407928,315.610443 
	C380.395844,315.147736 380.383759,314.685059 380.371704,314.222382 
	C379.428223,314.364166 378.484772,314.505920 377.533539,315.302521 
M415.848969,295.410980 
	C415.152466,295.084259 414.455994,294.757538 413.759460,294.430786 
	C413.684570,294.848358 413.609650,295.265930 413.534760,295.683502 
	C414.273773,295.807831 415.012787,295.932159 415.848969,295.410980 
M409.279816,305.885437 
	C409.470886,306.425110 409.661957,306.964752 409.853027,307.504425 
	C410.130096,307.378113 410.407135,307.251801 410.684204,307.125488 
	C410.360382,306.569977 410.036530,306.014465 409.279816,305.885437 
M397.293243,307.438080 
	C397.010681,307.707642 396.728088,307.977234 396.445526,308.246796 
	C396.557281,308.363708 396.760040,308.588470 396.767670,308.582031 
	C397.065674,308.330475 397.345886,308.057892 397.293243,307.438080 
M399.293304,298.438324 
	C399.010773,298.707886 398.728241,298.977417 398.445709,299.246948 
	C398.557465,299.363892 398.760223,299.588684 398.767822,299.582275 
	C399.065765,299.330719 399.345978,299.058075 399.293304,298.438324 
z"/>
<path fill="#020202" opacity="1.000000" stroke="none" 
	d="
M708.789795,521.000122 
	C703.411377,532.886902 698.033020,544.773743 692.002930,556.895447 
	C690.927551,558.158752 690.503845,559.187073 690.080139,560.215454 
	C689.261169,561.712769 688.442139,563.210144 686.983154,564.914307 
	C685.911255,566.124084 685.479370,567.127014 685.047546,568.129883 
	C682.605347,571.668274 680.163208,575.206665 677.063110,578.939453 
	C675.985107,579.894653 675.565002,580.655579 675.144836,581.416504 
	C665.877686,590.689697 656.729187,600.087646 647.232666,609.119690 
	C645.547241,610.722717 642.422058,611.450317 639.948181,611.480591 
	C625.621216,611.656067 611.290344,611.501526 596.294922,611.020874 
	C594.401672,610.388306 593.174255,610.193420 591.946777,609.998535 
	C591.742493,609.931335 591.538269,609.864197 591.671143,609.289185 
	C592.259583,607.959961 592.510864,607.138550 592.762085,606.317139 
	C595.921021,604.204163 599.079956,602.091187 602.740112,600.139587 
	C603.844177,599.573730 604.447083,598.846619 605.049927,598.119446 
	C605.049927,598.119446 605.056702,598.033936 605.457642,598.020508 
	C606.537842,597.247620 607.217102,596.488159 607.896423,595.728760 
	C610.732605,593.224792 613.568848,590.720825 617.078430,588.106812 
	C618.502686,587.088196 619.253540,586.179565 620.004456,585.270996 
	C621.014099,584.208130 622.023743,583.145203 623.722900,581.981812 
	C625.573608,580.495605 626.734741,579.109985 627.895813,577.724304 
	C632.518250,572.626282 637.140686,567.528198 642.438721,562.216553 
	C648.374146,562.574707 646.722534,558.666382 647.000000,556.008423 
	C652.573059,546.851624 658.146179,537.694824 664.288330,528.223938 
	C667.617065,526.862366 668.344360,525.080078 666.819458,522.483398 
	C667.929565,519.475037 669.039612,516.466614 670.725220,513.199402 
	C671.502991,511.887268 671.705139,510.833954 671.907288,509.780609 
	C672.096863,508.980621 672.286438,508.180603 673.102783,507.186829 
	C674.762939,506.467224 675.796265,505.941376 676.829529,505.415527 
	C675.946655,504.610748 675.063782,503.805969 674.180847,503.001221 
	C676.184692,494.256165 678.188599,485.511078 680.716797,476.369385 
	C681.778381,475.531342 682.315674,475.089996 682.853027,474.648651 
	C682.255554,474.099243 681.658020,473.549805 681.060547,473.000366 
	C681.057983,472.240204 681.055481,471.480042 681.549377,470.359741 
	C682.880371,469.775085 683.714966,469.550507 684.549500,469.325958 
	C684.548706,469.066193 684.547974,468.806427 684.547180,468.546661 
	C683.523438,468.319153 682.499695,468.091644 681.475952,467.864136 
	C681.591492,465.855469 681.707092,463.846771 682.327515,461.322266 
	C683.527527,451.683380 684.326599,442.564880 684.726074,433.428894 
	C684.759094,432.674835 682.081543,431.802246 680.663452,430.984711 
	C680.126221,428.261536 679.588989,425.538391 679.416870,422.348938 
	C682.378296,419.402588 680.348145,418.694916 678.293274,417.996704 
	C676.796387,412.286285 675.299561,406.575897 674.103027,400.349792 
	C675.155762,399.210876 675.908142,398.587646 677.690857,397.110962 
	C675.217896,397.586578 674.144348,397.793060 673.070679,397.999542 
	C672.371460,396.239868 671.672180,394.480194 671.370483,392.307800 
	C672.511902,390.080566 673.888672,388.264069 673.882935,386.451965 
	C673.864563,380.660950 673.338257,374.871246 672.997559,369.081696 
	C672.861328,366.766785 672.936768,364.407349 672.500916,362.148254 
	C671.288879,355.865570 673.479797,352.959473 679.872559,353.028229 
	C684.417847,353.077148 688.827332,352.933502 692.277283,349.380005 
	C692.774475,350.061615 693.271667,350.743225 693.578491,351.919983 
	C693.258789,352.942993 693.129395,353.470886 693.000000,354.417023 
	C693.857727,360.944885 694.754761,366.967194 693.179626,373.205383 
	C692.385803,376.349213 694.522827,377.618866 697.692566,376.327484 
	C695.934204,367.464813 696.049438,367.121613 701.033142,365.988617 
	C701.649597,367.120026 702.266052,368.251434 702.677612,369.876648 
	C702.892944,370.915253 703.313049,371.460052 703.733154,372.004852 
	C704.499634,373.759460 705.266052,375.514099 705.798340,377.790558 
	C705.990723,378.875153 706.417114,379.437958 706.843567,380.000732 
	C707.204712,380.794617 707.565857,381.588531 707.645935,382.930023 
	C705.488708,386.535919 705.266968,388.849701 709.850464,389.001160 
	C710.177917,389.787537 710.505371,390.573914 710.481323,391.748840 
	C707.805725,394.689606 709.759644,394.851349 711.731201,395.003204 
	C712.634521,398.012024 713.537842,401.020844 714.145020,404.584167 
	C714.391174,406.428619 714.933411,407.718597 715.475708,409.008545 
	C715.675293,409.751831 715.874878,410.495148 715.733521,411.772339 
	C713.127136,414.807037 714.543091,416.072662 716.967346,417.000031 
	C718.025452,425.036957 719.083557,433.073883 719.663147,441.650757 
	C718.852661,442.534698 718.254211,442.860016 718.228577,443.225464 
	C717.803955,449.281952 717.241455,455.343048 717.228516,461.404205 
	C717.225281,462.934509 719.029541,464.468658 720.003174,466.001038 
	C719.612244,470.723938 719.221313,475.446808 718.399170,480.657227 
	C717.941284,482.084137 717.914673,483.023529 717.888062,483.962891 
	C715.196655,495.495117 712.505249,507.027344 709.272095,518.833496 
	C708.291016,519.423462 707.851746,519.739441 707.412537,520.055481 
	C707.871643,520.370361 708.330688,520.685242 708.789795,521.000122 
z"/>
<path fill="#050505" opacity="1.000000" stroke="none" 
	d="
M707.419312,648.835449 
	C711.312744,658.990417 706.519958,665.526489 695.481812,665.527344 
	C618.201721,665.533264 540.921570,665.493469 463.641479,665.500183 
	C446.154755,665.501709 428.667999,665.630737 411.181274,665.697021 
	C403.629639,665.725647 399.899109,662.884766 399.200775,656.589539 
	C398.523529,650.484985 402.194427,645.384705 408.671143,643.893311 
	C411.232056,643.303650 413.939178,643.141968 416.580170,643.138367 
	C451.889160,643.089783 487.198700,643.019653 522.506836,643.195618 
	C527.635071,643.221191 532.052673,642.156067 535.880737,638.870728 
	C541.207458,634.299133 547.215454,632.873230 554.275513,632.950073 
	C582.419067,633.256226 610.570190,633.194031 638.714050,632.876099 
	C644.566345,632.809998 649.074890,634.947021 653.242004,638.328796 
	C657.738953,641.978394 662.581421,643.472656 668.421204,643.236694 
	C677.398865,642.873779 686.404724,643.167542 695.398010,643.251892 
	C700.065613,643.295715 704.318542,644.411987 707.419312,648.835449 
z"/>
<path fill="#050504" opacity="1.000000" stroke="none" 
	d="
M316.849182,713.084961 
	C318.749756,712.157593 320.402649,711.124146 322.065125,711.108459 
	C335.210815,710.984192 348.361023,710.890686 361.504425,711.110901 
	C373.961945,711.319580 384.754486,719.384460 387.903534,730.364258 
	C390.749786,740.288452 387.580505,748.373230 377.858490,754.715698 
	C378.430420,754.937378 378.882233,755.025391 379.234497,755.261780 
	C389.620331,762.230591 394.067963,771.576172 391.882477,781.798279 
	C389.641846,792.278381 380.451385,801.253662 369.150787,802.944702 
	C362.785736,803.897156 356.232147,803.720703 349.760498,803.797729 
	C340.942230,803.902649 332.120697,803.799500 323.301239,803.717102 
	C317.718323,803.664917 315.786041,801.612915 315.800781,796.194458 
	C315.872162,769.902832 315.904480,743.611267 315.992279,717.319702 
	C315.996582,716.029297 316.392456,714.740234 316.849182,713.084961 
M352.445740,766.820190 
	C348.719604,766.820190 344.993469,766.820190 341.408051,766.820190 
	C341.408051,772.102356 341.408051,776.655640 341.408051,781.457886 
	C347.543518,781.457886 353.348511,781.601929 359.142731,781.414307 
	C364.198822,781.250671 366.869232,778.778015 366.858917,774.804810 
	C366.848206,770.684570 363.369446,767.173279 358.884460,766.869324 
	C357.067108,766.746277 355.235657,766.830566 352.445740,766.820190 
M341.052246,745.178955 
	C340.786041,747.338501 341.310760,748.646851 343.917511,748.534912 
	C347.571808,748.378113 351.237762,748.488525 354.898712,748.490906 
	C358.950684,748.493530 362.209991,747.252197 362.960846,742.760681 
	C363.614105,738.852844 360.398956,734.335449 355.971710,733.854248 
	C351.123535,733.327209 346.173859,733.734314 341.058350,733.734314 
	C341.058350,737.610291 341.058350,740.929810 341.052246,745.178955 
z"/>
<path fill="#040404" opacity="1.000000" stroke="none" 
	d="
M669.598694,802.744141 
	C638.457275,811.352417 617.452148,792.677307 610.025330,775.429260 
	C597.991272,747.481506 615.172668,715.928162 645.688049,709.585388 
	C680.745789,702.298340 711.967224,736.567383 701.061218,770.514099 
	C696.013000,786.227539 685.646423,797.054810 669.598694,802.744141 
M632.355347,762.627258 
	C633.228699,764.592407 633.937195,766.652222 635.002991,768.506775 
	C640.684387,778.392883 653.854736,782.708252 663.990601,778.091248 
	C674.374939,773.361023 680.114380,760.526611 676.699951,749.670959 
	C673.211182,738.579163 661.292542,731.487183 650.113831,733.851501 
	C637.616089,736.494751 630.341370,747.817322 632.355347,762.627258 
z"/>
<path fill="#050505" opacity="1.000000" stroke="none" 
	d="
M498.294830,712.663391 
	C498.989258,714.210571 499.752075,715.446533 499.746979,716.679382 
	C499.675018,734.170654 499.963593,751.680969 499.226807,769.147156 
	C498.365692,789.559509 483.792053,803.314453 462.689789,804.905396 
	C438.617157,806.720337 417.923706,787.712402 418.532471,765.046326 
	C418.952728,749.399231 418.466766,733.728455 418.435852,718.068176 
	C418.425171,712.650574 420.094452,711.046875 425.641174,710.971985 
	C429.472382,710.920288 433.304962,710.934998 437.136627,710.962585 
	C442.262848,710.999573 444.022461,712.657349 444.031189,717.817993 
	C444.056824,732.978516 443.890137,748.139954 443.997437,763.299622 
	C444.058441,771.916992 448.258301,777.402893 455.645752,779.233276 
	C465.784851,781.745422 474.236328,775.492065 474.320770,765.054626 
	C474.446075,749.562195 474.275238,734.067322 474.211700,718.573547 
	C474.188568,712.930969 475.943756,710.846008 481.426544,711.029907 
	C486.961609,711.215576 492.480286,711.890320 498.294830,712.663391 
z"/>
<path fill="#080807" opacity="1.000000" stroke="none" 
	d="
M583.994324,259.075623 
	C585.437744,259.340668 586.881104,259.605743 588.656250,260.474487 
	C589.595886,262.964691 589.650635,265.763763 590.931396,266.540039 
	C593.301697,267.976746 596.357544,268.583527 599.190796,268.839417 
	C600.823608,268.986877 602.579651,267.769989 604.280212,267.167206 
	C628.686035,279.028168 650.083679,294.883453 667.850220,315.561096 
	C664.400940,313.928162 661.200500,311.964081 657.817139,309.669373 
	C653.422913,308.559174 649.211426,307.779572 644.954956,306.617401 
	C644.414001,304.691223 644.160217,301.958710 643.382324,301.800323 
	C638.919922,300.891693 637.779236,297.208679 635.802429,294.083893 
	C635.452026,293.529968 633.671143,293.354126 632.909485,293.730133 
	C632.089600,294.134918 631.267334,295.375122 631.225647,296.286407 
	C631.181458,297.252869 632.053589,298.261292 632.418274,299.026428 
	C630.834106,300.092621 629.417053,301.046326 627.625000,302.000000 
	C626.500000,302.000000 625.750000,302.000000 624.750000,302.000000 
	C624.500000,302.000000 624.000000,302.000000 623.989380,301.611145 
	C623.000488,298.867706 622.022095,296.513123 621.115906,294.332153 
	C618.765808,294.332153 616.663025,294.332153 614.138733,294.332153 
	C614.164307,298.291931 613.730103,301.888733 608.245605,300.219574 
	C608.125183,304.563049 608.130798,308.789276 602.253052,308.042572 
	C602.211670,308.037323 602.092834,308.642395 602.010132,308.962463 
	C584.857727,299.362152 567.368958,290.573517 547.900879,286.570801 
	C544.482178,285.867889 541.057617,285.193634 537.298584,283.978027 
	C537.432495,282.036926 537.903564,280.623932 538.589355,278.566986 
	C542.528992,283.810669 550.540710,284.871796 554.572205,281.601257 
	C552.580444,280.394196 550.568665,279.174988 548.379822,277.848541 
	C546.937134,278.772156 545.012939,280.003998 542.586731,281.557220 
	C541.885864,278.847748 541.791321,276.887939 540.890991,275.423492 
	C539.865967,273.756073 538.335632,271.863525 536.625366,271.315430 
	C535.143921,270.840637 533.046387,271.965485 531.330933,272.655975 
	C530.166992,273.124512 529.192932,274.064545 528.133911,274.793701 
	C528.062195,273.426361 527.990479,272.059021 527.901489,270.362488 
	C520.921692,265.986725 515.053162,271.630829 508.790741,273.626404 
	C508.881439,274.865967 508.966797,276.032776 509.052185,277.199554 
	C506.493774,277.199554 503.935394,277.199554 501.377014,277.199554 
	C501.332825,276.679321 501.288635,276.159088 501.244446,275.638855 
	C502.800842,274.484222 504.357239,273.329590 505.913666,272.174957 
	C505.866180,271.708984 505.818726,271.243011 505.771271,270.777039 
	C501.049133,270.180420 496.327026,269.583801 491.297424,268.948303 
	C491.231934,269.333221 491.172028,270.143250 490.942322,270.901855 
	C490.729950,271.603027 490.335663,272.249146 490.389252,272.134827 
	C487.737488,270.650970 485.368744,269.325500 482.999573,267.750916 
	C482.999146,267.501831 482.997559,267.003662 483.301880,266.847290 
	C485.640961,264.413757 487.675690,262.136627 489.730652,259.836853 
	C488.700104,259.106628 487.965271,258.585968 486.837433,257.786835 
	C488.976349,256.528748 490.529449,255.115295 492.326324,254.656464 
	C496.875214,253.494919 501.513672,252.627792 506.160187,251.939148 
	C507.554443,251.732513 509.652863,252.016693 510.444885,252.929565 
	C511.912537,254.621246 512.655212,256.941895 513.937927,259.470032 
	C518.694519,254.736252 520.835510,259.959381 524.035645,261.281799 
	C524.374573,261.886230 524.677856,262.207672 524.981201,262.529114 
	C525.161804,262.320953 525.342407,262.112793 525.523010,261.904633 
	C525.015320,261.603516 524.507690,261.302368 524.007202,260.631226 
	C525.919250,257.879272 527.824097,255.497345 530.171204,252.562378 
	C531.631287,257.789764 534.755310,259.280945 538.373413,256.522888 
	C541.089844,254.452148 542.833862,251.105759 545.010742,248.327271 
	C545.476990,248.336227 545.943237,248.345200 546.722351,248.897095 
	C548.760071,251.280319 548.411255,255.280273 552.512634,254.755554 
	C552.578186,254.747162 552.833313,256.219757 552.607056,257.000671 
	C550.280212,256.622040 548.346313,256.243988 546.412476,255.865936 
	C547.453491,257.825073 548.993835,259.051788 550.741638,259.781525 
	C551.052856,259.911469 552.225281,257.978943 553.337891,257.051025 
	C554.783813,258.068878 555.891907,259.034424 557.035461,260.283020 
	C557.374634,260.887268 557.678406,261.208496 557.982117,261.529724 
	C558.162598,261.321259 558.343079,261.112762 558.523560,260.904266 
	C558.015686,260.602844 557.507874,260.301422 557.005859,259.657471 
	C557.323975,256.471191 558.023804,257.508148 559.551697,258.765259 
	C562.346313,261.064453 565.114746,263.975525 569.212891,263.271240 
	C570.576660,264.328827 572.496582,265.656342 573.573853,265.158936 
	C577.208679,263.480621 580.544312,261.154205 583.994324,259.075623 
M561.227295,265.015869 
	C558.061096,265.402435 557.501892,267.045410 558.768494,269.854889 
	C562.488831,269.727997 562.991028,267.845337 562.477356,264.973816 
	C562.750732,264.857269 563.024048,264.740723 563.297424,264.624146 
	C563.211060,264.501495 563.124695,264.378815 563.038330,264.256165 
	C562.692200,264.504517 562.346130,264.752869 561.227295,265.015869 
M608.793640,288.523407 
	C608.250427,290.513275 607.707275,292.503143 607.164062,294.493011 
	C607.944092,294.598694 608.724121,294.704376 609.504150,294.810059 
	C609.504150,292.766663 609.504150,290.723297 608.793640,288.523407 
M568.873230,268.601501 
	C568.033447,268.044281 567.193726,267.487061 566.353943,266.929840 
	C565.905640,268.031342 565.457275,269.132812 565.008972,270.234314 
	C565.311340,270.429108 565.613647,270.623932 565.916016,270.818726 
	C566.839539,270.296326 567.763062,269.773895 568.873230,268.601501 
M539.613037,261.479645 
	C538.565247,261.370300 537.517517,261.260925 536.469727,261.151550 
	C536.519897,261.692078 536.570068,262.232605 536.620300,262.773132 
	C537.510132,262.528381 538.399963,262.283661 539.613037,261.479645 
M541.438538,257.706238 
	C541.708008,257.988617 541.977478,258.270996 542.246948,258.553375 
	C542.363892,258.441742 542.480835,258.330078 542.597778,258.218445 
	C542.327942,257.936035 542.058167,257.653625 541.438538,257.706238 
M577.800049,270.396729 
	C577.795837,270.787323 577.791626,271.177887 577.787415,271.568481 
	C577.949463,271.570099 578.252441,271.582611 578.253235,271.571838 
	C578.283203,271.183228 578.284973,270.792419 577.800049,270.396729 
M529.201843,263.604492 
	C529.205872,263.213837 529.209961,262.823181 529.213989,262.432526 
	C529.051880,262.430847 528.748901,262.418365 528.748047,262.429047 
	C528.718262,262.817657 528.716553,263.208466 529.201843,263.604492 
M494.482727,257.586792 
	C494.482727,257.586792 494.417694,257.477509 494.482727,257.586792 
M537.584473,265.516266 
	C537.584473,265.516266 537.477051,265.579834 537.584473,265.516266 
z"/>
<path fill="#030303" opacity="1.000000" stroke="none" 
	d="
M515.555176,310.475159 
	C528.450073,304.070892 542.319336,305.388947 551.871643,313.708466 
	C562.250977,322.748291 565.818665,335.692169 561.458618,348.490356 
	C556.363708,363.445221 539.618958,372.552551 524.291016,368.705444 
	C508.621613,364.772614 497.888824,348.831696 500.306763,333.158508 
	C501.820892,323.344055 506.854675,315.903320 515.555176,310.475159 
z"/>
<path fill="#060605" opacity="1.000000" stroke="none" 
	d="
M568.932129,711.006897 
	C571.408813,711.010864 573.435730,710.806824 575.401489,711.065979 
	C578.892700,711.526245 580.633423,713.803589 580.616333,717.243164 
	C580.527039,735.236389 580.665100,753.237427 580.153809,771.219604 
	C579.731384,786.078125 571.747681,796.315186 558.235535,801.773560 
	C544.239990,807.427307 531.752380,803.459656 520.833923,793.834229 
	C515.597534,789.217896 515.652466,785.682922 520.363708,780.714844 
	C521.050964,779.990173 521.787231,779.310974 522.513733,778.624390 
	C530.329407,771.238098 530.377136,771.169678 539.171326,777.141785 
	C542.705444,779.541809 546.283691,779.965210 549.978638,778.052185 
	C553.800598,776.073425 555.038635,772.525818 555.024292,768.420593 
	C554.967346,752.091248 554.959900,735.761536 554.840698,719.432617 
	C554.785767,711.903503 555.499939,711.059814 562.955872,711.022583 
	C564.788879,711.013428 566.621826,711.012329 568.932129,711.006897 
z"/>
<path fill="#030303" opacity="1.000000" stroke="none" 
	d="
M692.199097,349.064545 
	C688.827332,352.933502 684.417847,353.077148 679.872559,353.028229 
	C673.479797,352.959473 671.288879,355.865570 672.500916,362.148254 
	C672.936768,364.407349 672.861328,366.766785 672.997559,369.081696 
	C673.338257,374.871246 673.864563,380.660950 673.882935,386.451965 
	C673.888672,388.264069 672.511902,390.080566 671.378662,391.949158 
	C667.227905,383.923981 664.375305,375.243225 659.510681,367.894257 
	C650.199829,353.828400 640.088623,340.233215 627.278442,328.975159 
	C624.533630,326.562866 621.811768,324.124420 619.290161,321.321259 
	C621.000610,317.296326 622.500305,313.648163 624.396240,310.000793 
	C626.122070,310.683807 627.451538,311.365997 628.781067,312.048157 
	C627.643311,313.073395 626.505554,314.098602 625.278259,315.204529 
	C632.274902,318.883636 632.274902,318.883636 634.353394,313.005341 
	C635.471191,313.673798 636.235596,314.336914 636.782349,315.162476 
	C636.619202,315.726471 636.673767,316.127960 636.728271,316.529480 
	C637.152222,316.019653 637.576111,315.509827 638.142090,314.711609 
	C639.189453,313.948822 640.094727,313.474426 641.056030,313.344086 
	C643.699280,315.856476 646.202026,318.144623 648.950195,320.085083 
	C649.458130,320.443787 650.957947,319.397705 652.278748,318.740234 
	C653.798950,316.712646 651.461792,312.696960 656.000610,313.391663 
	C657.018372,315.468994 657.725281,317.494110 659.119019,318.767609 
	C661.774841,321.194458 664.822754,323.192291 668.268677,325.791138 
	C669.896362,324.185455 672.598938,324.518799 675.146301,327.353333 
	C675.341980,327.571136 676.425964,326.990753 677.097046,326.781342 
	C677.892151,327.661804 678.687317,328.542267 679.260193,329.786255 
	C680.354431,333.718170 681.670898,337.286560 682.987305,340.854919 
	C684.041565,340.459015 685.095764,340.063110 686.150024,339.667236 
	C688.140320,342.694519 690.130615,345.721802 692.199097,349.064545 
M641.397766,331.199677 
	C641.787964,331.203979 642.178162,331.208282 642.568359,331.212585 
	C642.569885,331.050659 642.582397,330.748047 642.571411,330.747192 
	C642.183167,330.717102 641.792725,330.715302 641.397766,331.199677 
M623.483337,321.584717 
	C623.483337,321.584717 623.420227,321.477478 623.483337,321.584717 
z"/>
<path fill="#080807" opacity="1.000000" stroke="none" 
	d="
M462.828064,290.888672 
	C462.029022,290.215973 461.365356,289.653473 460.990936,288.939331 
	C459.797821,286.663422 459.047729,283.272644 455.751984,284.302704 
	C454.102966,284.818054 453.170044,287.624603 451.639008,289.781158 
	C446.650635,284.750885 442.867584,293.026093 438.053558,291.832306 
	C436.854950,289.442749 435.807922,287.355377 434.760895,285.268036 
	C434.391357,285.366302 434.021851,285.464600 433.652344,285.562866 
	C433.652344,286.208679 433.853973,286.944672 433.613251,287.482819 
	C432.976685,288.905914 432.184296,290.266785 431.329376,291.570770 
	C431.260284,291.676239 429.729309,291.122101 429.742401,290.934845 
	C429.836243,289.591156 430.175446,288.266602 430.394623,286.929108 
	C430.621429,285.545319 430.800720,284.153717 430.679565,282.604431 
	C427.160156,288.834290 421.215332,285.693939 416.012329,287.285919 
	C417.207581,288.621857 418.502991,290.069702 420.327423,292.108856 
	C417.145355,291.844666 414.892670,291.657654 412.634033,291.468201 
	C413.293060,289.195221 412.630676,287.605530 407.747833,279.929199 
	C403.836395,282.857635 397.021606,282.104614 396.366028,289.420929 
	C399.474365,289.057709 402.310333,288.726318 405.772888,288.321686 
	C405.434906,287.227509 405.056427,286.002197 404.363892,283.760223 
	C405.905243,284.453003 407.402679,284.651062 407.685913,285.344818 
	C408.452301,287.222046 408.702759,289.309967 409.201538,291.506653 
	C408.161896,291.407013 407.073120,291.302673 405.458344,291.147919 
	C405.828979,292.404327 406.111725,293.362854 406.463135,294.554047 
	C405.804779,294.703278 405.065643,295.124420 404.627319,294.915222 
	C403.815918,294.527985 402.545868,293.741272 402.573242,293.174377 
	C402.774567,289.007324 400.479218,289.845215 398.685547,291.430969 
	C396.659271,293.222443 395.669800,293.068420 393.866150,291.110443 
	C392.891907,290.052795 390.646912,290.165680 388.975220,289.750519 
	C389.513092,291.279480 389.913330,292.877899 390.637482,294.312866 
	C391.114136,295.257355 392.057587,295.966217 392.792023,296.780609 
	C392.684021,297.341858 392.576019,297.903076 392.467987,298.464325 
	C388.545837,298.241730 384.623688,298.019135 381.088257,297.818481 
	C377.687103,302.154083 374.201965,306.596802 370.498199,311.318176 
	C369.380066,310.491241 367.720154,309.263611 365.887756,307.698120 
	C381.899994,290.718475 400.701111,277.680664 421.257874,267.068420 
	C423.910950,265.698792 426.619354,264.436432 429.706726,263.496216 
	C430.598816,266.050171 431.086304,268.232330 431.580902,270.446381 
	C433.548279,269.621277 435.302856,268.885437 436.534973,268.368713 
	C438.183044,270.166565 439.476288,271.577423 440.769562,272.988251 
	C441.043610,272.714966 441.317627,272.441650 441.591644,272.168365 
	C441.073975,270.719269 440.556305,269.270142 439.583405,266.546783 
	C447.139648,269.852539 455.303802,261.656982 460.942627,270.641663 
	C463.773438,269.884705 466.525482,269.148804 469.880646,268.251617 
	C468.526398,262.642365 462.909943,268.836670 460.054871,265.817261 
	C466.865997,262.587738 470.774597,257.706665 470.622070,250.229675 
	C471.545349,249.937836 472.468628,249.646011 473.722168,249.802521 
	C474.134247,251.652466 474.216064,253.054108 474.287048,254.270142 
	C476.009125,254.270142 477.270477,254.270142 478.091919,254.270142 
	C477.324463,257.108002 476.662842,259.554626 475.716736,262.035217 
	C475.109192,262.372955 474.786133,262.676727 474.463074,262.980469 
	C474.672028,263.162598 474.880920,263.344696 475.089783,263.526794 
	C475.392761,263.017456 475.695770,262.508118 476.348083,261.961609 
	C478.173340,260.805298 479.649292,259.686127 482.000854,257.903046 
	C482.000854,261.380463 482.000854,264.192657 482.110443,267.222168 
	C482.419037,267.711151 482.679016,267.897980 482.999023,268.363770 
	C482.756012,269.698334 482.513947,270.669159 482.165100,272.068298 
	C480.856323,270.469971 479.980286,269.400146 478.633118,267.754913 
	C478.311096,269.241180 478.140106,269.975525 477.993713,270.714722 
	C476.584259,277.829987 475.910461,278.168823 468.886017,279.161682 
	C466.931061,279.438019 465.245239,281.618713 463.435944,282.925781 
	C463.721069,283.459900 464.006195,283.994049 464.291321,284.528168 
	C465.527557,284.685455 466.763763,284.842712 468.000000,285.000000 
	C468.000000,285.000000 468.000000,284.998901 468.000000,285.409637 
	C468.012146,286.915588 468.024292,288.010803 468.036438,289.106018 
	C467.546783,289.364227 467.057098,289.622437 466.218719,289.547119 
	C465.249176,289.617706 464.628326,290.021820 464.007446,290.425964 
	C463.703583,290.593781 463.399689,290.761627 462.828064,290.888672 
M438.200958,284.638977 
	C439.462524,285.142456 440.788727,285.527618 441.972290,286.173950 
	C444.465118,287.535309 446.337433,286.578796 447.000854,284.274384 
	C447.456055,282.693085 446.706055,280.764832 446.494812,278.991669 
	C445.960144,278.983124 445.425476,278.974579 444.890839,278.966034 
	C444.039459,280.462494 443.188080,281.958954 442.496796,283.174011 
	C440.964569,283.446167 439.630707,283.683044 438.200958,284.638977 
M440.957794,274.644775 
	C440.438904,274.891418 439.920013,275.138031 439.401123,275.384674 
	C439.820526,275.799744 440.239899,276.214844 440.659332,276.629913 
	C440.903015,276.110565 441.146729,275.591187 440.957794,274.644775 
M472.883606,267.718872 
	C473.423157,267.527618 473.962677,267.336365 474.502228,267.145111 
	C474.375793,266.868317 474.249359,266.591522 474.122894,266.314789 
	C473.567627,266.638580 473.012329,266.962372 472.883606,267.718872 
M449.414276,271.482971 
	C449.414276,271.482971 449.523071,271.418396 449.414276,271.482971 
z"/>
<path fill="#030303" opacity="1.000000" stroke="none" 
	d="
M468.427246,289.118317 
	C468.024292,288.010803 468.012146,286.915588 468.294739,285.520447 
	C470.320221,284.675079 472.050964,284.129669 473.781708,283.584229 
	C470.906982,281.878174 468.556030,281.425385 468.000000,285.000000 
	C466.763763,284.842712 465.527557,284.685455 464.291321,284.528168 
	C464.006195,283.994049 463.721069,283.459900 463.435944,282.925781 
	C465.245239,281.618713 466.931061,279.438019 468.886017,279.161682 
	C475.910461,278.168823 476.584259,277.829987 477.993713,270.714722 
	C478.140106,269.975525 478.311096,269.241180 478.633118,267.754913 
	C479.980286,269.400146 480.856323,270.469971 482.165100,272.068298 
	C482.513947,270.669159 482.756012,269.698334 482.999023,268.363770 
	C485.368744,269.325500 487.737488,270.650970 490.389252,272.134827 
	C490.335663,272.249146 490.729950,271.603027 490.942322,270.901855 
	C491.172028,270.143250 491.231934,269.333221 491.297424,268.948303 
	C496.327026,269.583801 501.049133,270.180420 505.771271,270.777039 
	C505.818726,271.243011 505.866180,271.708984 505.913666,272.174957 
	C504.357239,273.329590 502.800842,274.484222 501.244446,275.638855 
	C501.288635,276.159088 501.332825,276.679321 501.377014,277.199554 
	C503.935394,277.199554 506.493774,277.199554 509.052185,277.199554 
	C508.966797,276.032776 508.881439,274.865967 508.790741,273.626404 
	C515.053162,271.630829 520.921692,265.986725 527.901489,270.362488 
	C527.990479,272.059021 528.062195,273.426361 528.133911,274.793701 
	C529.192932,274.064545 530.166992,273.124512 531.330933,272.655975 
	C533.046387,271.965485 535.143921,270.840637 536.625366,271.315430 
	C538.335632,271.863525 539.865967,273.756073 540.890991,275.423492 
	C541.791321,276.887939 541.885864,278.847748 542.586731,281.557220 
	C545.012939,280.003998 546.937134,278.772156 548.379822,277.848541 
	C550.568665,279.174988 552.580444,280.394196 554.572205,281.601257 
	C550.540710,284.871796 542.528992,283.810669 538.589355,278.566986 
	C537.903564,280.623932 537.432495,282.036926 536.981934,283.762146 
	C534.589417,283.885498 532.176453,283.696625 529.321533,282.939392 
	C526.163391,280.347992 523.506958,279.784027 520.992798,282.694061 
	C516.967041,282.694641 512.941223,282.695221 508.405121,282.342712 
	C507.259491,282.188263 506.624207,282.386902 505.988892,282.585571 
	C503.615631,282.774261 501.242401,282.962952 498.308777,282.856201 
	C497.160522,282.777405 496.572632,282.994019 495.984741,283.210663 
	C486.929169,285.183990 477.873596,287.157318 468.427246,289.118317 
M519.800049,274.397156 
	C519.795898,274.787720 519.791748,275.178314 519.787598,275.568878 
	C519.949646,275.570404 520.252625,275.582825 520.253479,275.571930 
	C520.283447,275.183258 520.285217,274.792419 519.800049,274.397156 
z"/>
<path fill="#0E0E0D" opacity="1.000000" stroke="none" 
	d="
M476.001221,262.001221 
	C476.662842,259.554626 477.324463,257.108002 478.091919,254.270142 
	C477.270477,254.270142 476.009125,254.270142 474.287048,254.270142 
	C474.216064,253.054108 474.134247,251.652466 474.085541,249.831909 
	C474.603088,249.283920 475.087463,249.154846 475.860413,249.441986 
	C476.242432,250.227448 476.335907,250.596664 476.429382,250.965897 
	C476.559357,250.946091 476.689362,250.926285 476.819336,250.906494 
	C476.764893,250.325485 476.710449,249.744492 476.656006,249.163498 
	C494.900391,244.593796 513.395325,245.026031 531.927002,246.477432 
	C536.046387,246.800064 540.136902,247.491516 544.625732,248.170212 
	C542.833862,251.105759 541.089844,254.452148 538.373413,256.522888 
	C534.755310,259.280945 531.631287,257.789764 530.171204,252.562378 
	C527.824097,255.497345 525.919250,257.879272 524.007202,260.630615 
	C524.000000,261.000000 524.000000,260.998779 524.000000,260.998779 
	C520.835510,259.959381 518.694519,254.736252 513.937927,259.470032 
	C512.655212,256.941895 511.912537,254.621246 510.444885,252.929565 
	C509.652863,252.016693 507.554443,251.732513 506.160187,251.939148 
	C501.513672,252.627792 496.875214,253.494919 492.326324,254.656464 
	C490.529449,255.115295 488.976349,256.528748 486.837433,257.786835 
	C487.965271,258.585968 488.700104,259.106628 489.730652,259.836853 
	C487.675690,262.136627 485.640961,264.413757 483.052734,266.846436 
	C482.499237,267.002014 482.000854,267.004883 482.000854,267.004883 
	C482.000854,264.192657 482.000854,261.380463 482.000854,257.903046 
	C479.649292,259.686127 478.173340,260.805298 476.348694,261.962219 
	C476.000000,262.000000 476.001221,262.001221 476.001221,262.001221 
z"/>
<path fill="#0E0E0D" opacity="1.000000" stroke="none" 
	d="
M470.211670,250.176544 
	C470.774597,257.706665 466.865997,262.587738 460.054871,265.817261 
	C462.909943,268.836670 468.526398,262.642365 469.880646,268.251617 
	C466.525482,269.148804 463.773438,269.884705 460.942627,270.641663 
	C455.303802,261.656982 447.139648,269.852539 439.583405,266.546783 
	C440.556305,269.270142 441.073975,270.719269 441.591644,272.168365 
	C441.317627,272.441650 441.043610,272.714966 440.769562,272.988251 
	C439.476288,271.577423 438.183044,270.166565 436.534973,268.368713 
	C435.302856,268.885437 433.548279,269.621277 431.580902,270.446381 
	C431.086304,268.232330 430.598816,266.050171 430.068298,263.483276 
	C443.283936,258.773499 456.542603,254.448456 470.211670,250.176544 
M444.287262,265.536163 
	C444.398376,264.961731 444.509460,264.387329 444.620575,263.812897 
	C444.212341,263.807587 443.804108,263.802277 443.395874,263.796967 
	C443.493591,264.373749 443.591339,264.950531 444.287262,265.536163 
M465.396851,256.200409 
	C465.787506,256.204681 466.178131,256.208954 466.568787,256.213196 
	C466.570312,256.051147 466.582703,255.748276 466.571716,255.747437 
	C466.183014,255.717361 465.792145,255.715576 465.396851,256.200409 
z"/>
<path fill="#040404" opacity="1.000000" stroke="none" 
	d="
M624.000000,310.000000 
	C622.500305,313.648163 621.000610,317.296326 619.126648,321.018433 
	C618.454590,321.166473 618.202026,321.090424 617.920288,320.278503 
	C616.832703,319.152832 615.819397,318.612915 614.806152,318.072998 
	C613.965698,317.550385 613.125183,317.027740 612.141907,315.865051 
	C611.357239,310.166931 608.650024,308.405426 603.789185,310.081421 
	C603.295532,309.864075 602.801880,309.646698 602.159180,309.195923 
	C602.092834,308.642395 602.211670,308.037323 602.253052,308.042572 
	C608.130798,308.789276 608.125183,304.563049 608.245605,300.219574 
	C613.730103,301.888733 614.164307,298.291931 614.138733,294.332153 
	C616.663025,294.332153 618.765808,294.332153 621.115906,294.332153 
	C622.022095,296.513123 623.000488,298.867706 623.838379,301.916840 
	C621.408630,304.515411 618.908875,306.225342 616.907837,308.395264 
	C615.682068,309.724457 615.176819,311.742218 614.508179,313.511322 
	C614.459167,313.640930 616.093750,314.741547 616.298889,314.578247 
	C617.645081,313.506683 618.666748,311.985809 620.087524,311.063110 
	C621.166687,310.362305 622.679932,310.329834 624.000000,310.000000 
z"/>
<path fill="#0E0E0D" opacity="1.000000" stroke="none" 
	d="
M557.005859,259.657471 
	C555.891907,259.034424 554.783813,258.068878 553.337891,257.051636 
	C553.000000,257.000000 553.000000,257.001221 553.000000,257.001221 
	C552.833313,256.219757 552.578186,254.747162 552.512634,254.755554 
	C548.411255,255.280273 548.760071,251.280319 547.001465,249.114899 
	C552.293457,250.138535 557.608765,251.529831 562.947632,252.824203 
	C568.342224,254.132065 573.783142,255.255203 579.152588,256.655731 
	C580.627319,257.040375 581.918579,258.128815 583.644165,258.984955 
	C580.544312,261.154205 577.208679,263.480621 573.573853,265.158936 
	C572.496582,265.656342 570.576660,264.328827 569.212891,263.271240 
	C565.114746,263.975525 562.346313,261.064453 559.551697,258.765259 
	C558.023804,257.508148 557.323975,256.471191 557.005859,259.657471 
M561.200378,257.602142 
	C561.204468,257.212006 561.212219,256.821655 561.192383,256.432739 
	C561.191833,256.422791 560.748169,256.417480 560.747437,256.428131 
	C560.717590,256.816345 560.715820,257.206757 561.200378,257.602142 
z"/>
<path fill="#050504" opacity="1.000000" stroke="none" 
	d="
M677.028015,326.452209 
	C676.425964,326.990753 675.341980,327.571136 675.146301,327.353333 
	C672.598938,324.518799 669.896362,324.185455 668.268677,325.791138 
	C664.822754,323.192291 661.774841,321.194458 659.119019,318.767609 
	C657.725281,317.494110 657.018372,315.468994 656.344238,313.337097 
	C657.124817,311.927277 657.562439,310.963654 658.000000,310.000000 
	C661.200500,311.964081 664.400940,313.928162 667.979248,315.881226 
	C671.224426,319.287811 674.091675,322.705414 677.028015,326.452209 
z"/>
<path fill="#030303" opacity="1.000000" stroke="none" 
	d="
M680.610535,431.390991 
	C682.081543,431.802246 684.759094,432.674835 684.726074,433.428894 
	C684.326599,442.564880 683.527527,451.683380 682.442505,460.903198 
	C681.554260,451.265717 681.055969,441.531494 680.610535,431.390991 
z"/>
<path fill="#030303" opacity="1.000000" stroke="none" 
	d="
M701.036133,365.690521 
	C696.049438,367.121613 695.934204,367.464813 697.692566,376.327484 
	C694.522827,377.618866 692.385803,376.349213 693.179626,373.205383 
	C694.754761,366.967194 693.857727,360.944885 693.327209,354.418732 
	C694.090698,354.005432 694.527039,354.008636 694.963379,354.011841 
	C695.706177,355.216858 696.448975,356.421875 697.156921,358.369141 
	C696.926941,361.458160 696.835205,363.741577 700.101074,363.963501 
	C700.413818,364.439789 700.726501,364.916107 701.036133,365.690521 
z"/>
<path fill="#0E0E0D" opacity="1.000000" stroke="none" 
	d="
M604.058472,266.943604 
	C602.579651,267.769989 600.823608,268.986877 599.190796,268.839417 
	C596.357544,268.583527 593.301697,267.976746 590.931396,266.540039 
	C589.650635,265.763763 589.595886,262.964691 588.989136,260.668335 
	C593.939087,262.412323 598.887878,264.566132 604.058472,266.943604 
z"/>
<path fill="#030303" opacity="1.000000" stroke="none" 
	d="
M720.147095,465.620300 
	C719.029541,464.468658 717.225281,462.934509 717.228516,461.404205 
	C717.241455,455.343048 717.803955,449.281952 718.228577,443.225464 
	C718.254211,442.860016 718.852661,442.534698 719.577576,442.095398 
	C720.077454,449.746552 720.184265,457.493073 720.147095,465.620300 
z"/>
<path fill="#050504" opacity="1.000000" stroke="none" 
	d="
M686.078125,339.337921 
	C685.095764,340.063110 684.041565,340.459015 682.987305,340.854919 
	C681.670898,337.286560 680.354431,333.718170 679.336975,330.076477 
	C681.759399,333.005005 683.882812,336.006805 686.078125,339.337921 
z"/>
<path fill="#080807" opacity="1.000000" stroke="none" 
	d="
M603.963257,310.373138 
	C608.650024,308.405426 611.357239,310.166931 612.005127,315.596252 
	C609.386536,314.199921 606.761902,312.432373 603.963257,310.373138 
z"/>
<path fill="#030303" opacity="1.000000" stroke="none" 
	d="
M709.875610,388.641724 
	C705.266968,388.849701 705.488708,386.535919 707.625610,383.259918 
	C708.557800,384.788910 709.229248,386.535583 709.875610,388.641724 
z"/>
<path fill="#080807" opacity="1.000000" stroke="none" 
	d="
M521.369873,282.824890 
	C523.506958,279.784027 526.163391,280.347992 528.960876,282.756714 
	C526.610413,283.080200 524.178711,283.017975 521.369873,282.824890 
z"/>
<path fill="#030303" opacity="1.000000" stroke="none" 
	d="
M646.709839,556.156616 
	C646.722534,558.666382 648.374146,562.574707 642.711975,562.004272 
	C643.679688,560.105347 645.049744,558.205078 646.709839,556.156616 
z"/>
<path fill="#030303" opacity="1.000000" stroke="none" 
	d="
M673.984131,503.294983 
	C675.063782,503.805969 675.946655,504.610748 676.829529,505.415527 
	C675.796265,505.941376 674.762939,506.467224 673.346741,506.990295 
	C673.238403,505.854645 673.512939,504.721710 673.984131,503.294983 
z"/>
<path fill="#030303" opacity="1.000000" stroke="none" 
	d="
M666.550293,522.705994 
	C668.344360,525.080078 667.617065,526.862366 664.520386,527.955688 
	C664.882690,526.310547 665.581970,524.619568 666.550293,522.705994 
z"/>
<path fill="#030303" opacity="1.000000" stroke="none" 
	d="
M717.024292,416.630676 
	C714.543091,416.072662 713.127136,414.807037 715.682617,412.158173 
	C716.342224,413.427124 716.711792,414.844208 717.024292,416.630676 
z"/>
<path fill="#030303" opacity="1.000000" stroke="none" 
	d="
M627.582520,577.843689 
	C626.734741,579.109985 625.573608,580.495605 624.016724,581.872192 
	C624.837036,580.563171 626.053162,579.263123 627.582520,577.843689 
z"/>
<path fill="#080807" opacity="1.000000" stroke="none" 
	d="
M359.187988,313.917419 
	C361.908600,316.772308 359.334839,316.661194 357.069122,316.979218 
	C357.423279,316.004395 358.171173,315.035492 359.187988,313.917419 
z"/>
<path fill="#050504" opacity="1.000000" stroke="none" 
	d="
M700.080688,363.605225 
	C696.835205,363.741577 696.926941,361.458160 697.192261,358.674683 
	C698.195068,359.907654 699.127686,361.577301 700.080688,363.605225 
z"/>
<path fill="#030303" opacity="1.000000" stroke="none" 
	d="
M678.241272,418.339172 
	C680.348145,418.694916 682.378296,419.402588 679.460876,421.940979 
	C678.822998,420.893433 678.506104,419.787506 678.241272,418.339172 
z"/>
<path fill="#030303" opacity="1.000000" stroke="none" 
	d="
M715.506714,408.697021 
	C714.933411,407.718597 714.391174,406.428619 714.152100,404.982300 
	C714.816040,406.012482 715.176880,407.199005 715.506714,408.697021 
z"/>
<path fill="#030303" opacity="1.000000" stroke="none" 
	d="
M680.931274,473.283386 
	C681.658020,473.549805 682.255554,474.099243 682.853027,474.648651 
	C682.315674,475.089996 681.778381,475.531342 680.920410,475.992920 
	C680.667114,475.197571 680.734558,474.381989 680.931274,473.283386 
z"/>
<path fill="#030303" opacity="1.000000" stroke="none" 
	d="
M681.356995,468.115356 
	C682.499695,468.091644 683.523438,468.319153 684.547180,468.546661 
	C684.547974,468.806427 684.548706,469.066193 684.549500,469.325958 
	C683.714966,469.550507 682.880371,469.775085 681.688110,470.001984 
	C681.299561,469.458405 681.268799,468.912506 681.356995,468.115356 
z"/>
<path fill="#030303" opacity="1.000000" stroke="none" 
	d="
M673.035583,398.292847 
	C674.144348,397.793060 675.217896,397.586578 677.690857,397.110962 
	C675.908142,398.587646 675.155762,399.210876 674.099915,399.958649 
	C673.531067,399.584198 673.265747,399.085175 673.035583,398.292847 
z"/>
<path fill="#030303" opacity="1.000000" stroke="none" 
	d="
M711.751221,394.681702 
	C709.759644,394.851349 707.805725,394.689606 710.447205,392.069305 
	C711.100159,392.787537 711.435730,393.573853 711.751221,394.681702 
z"/>
<path fill="#080807" opacity="1.000000" stroke="none" 
	d="
M434.313660,303.188354 
	C434.107666,302.006500 434.204834,300.808197 434.411896,298.254852 
	C435.336700,300.079956 435.672272,300.742188 436.023743,301.766235 
	C435.565369,302.476044 435.091125,302.823975 434.313660,303.188354 
z"/>
<path fill="#030303" opacity="1.000000" stroke="none" 
	d="
M718.065918,483.703491 
	C717.914673,483.023529 717.941284,482.084137 718.250000,481.069275 
	C718.435913,481.810577 718.339844,482.627350 718.065918,483.703491 
z"/>
<path fill="#030303" opacity="1.000000" stroke="none" 
	d="
M592.081543,610.268066 
	C593.174255,610.193420 594.401672,610.388306 595.853516,610.884949 
	C594.790649,610.970337 593.503418,610.753967 592.081543,610.268066 
z"/>
<path fill="#030303" opacity="1.000000" stroke="none" 
	d="
M619.722534,585.361389 
	C619.253540,586.179565 618.502686,587.088196 617.400208,588.006226 
	C617.845947,587.161072 618.643250,586.306458 619.722534,585.361389 
z"/>
<path fill="#030303" opacity="1.000000" stroke="none" 
	d="
M607.599854,595.817444 
	C607.217102,596.488159 606.537842,597.247620 605.498779,598.032593 
	C605.860413,597.340881 606.581848,596.623535 607.599854,595.817444 
z"/>
<path fill="#030303" opacity="1.000000" stroke="none" 
	d="
M671.644287,510.019104 
	C671.705139,510.833954 671.502991,511.887268 670.956482,512.959351 
	C670.868530,512.071289 671.124878,511.164429 671.644287,510.019104 
z"/>
<path fill="#030303" opacity="1.000000" stroke="none" 
	d="
M690.362061,560.052307 
	C690.503845,559.187073 690.927551,558.158752 691.715881,557.079407 
	C691.601624,557.981995 691.122803,558.935608 690.362061,560.052307 
z"/>
<path fill="#030303" opacity="1.000000" stroke="none" 
	d="
M685.329224,567.975586 
	C685.479370,567.127014 685.911255,566.124084 686.700317,565.070557 
	C686.575256,565.953674 686.093018,566.887512 685.329224,567.975586 
z"/>
<path fill="#030303" opacity="1.000000" stroke="none" 
	d="
M604.767517,598.167175 
	C604.447083,598.846619 603.844177,599.573730 603.070984,600.038574 
	C603.428772,599.255737 603.956909,598.735291 604.767517,598.167175 
z"/>
<path fill="#050504" opacity="1.000000" stroke="none" 
	d="
M614.953369,318.368530 
	C615.819397,318.612915 616.832703,319.152832 617.844238,320.086670 
	C616.928528,319.875061 616.014526,319.269592 614.953369,318.368530 
z"/>
<path fill="#030303" opacity="1.000000" stroke="none" 
	d="
M592.447998,606.396362 
	C592.510864,607.138550 592.259583,607.959961 591.600769,608.974487 
	C591.506775,608.270325 591.820312,607.372986 592.447998,606.396362 
z"/>
<path fill="#030303" opacity="1.000000" stroke="none" 
	d="
M675.434875,581.276611 
	C675.565002,580.655579 675.985107,579.894653 676.767578,579.090210 
	C676.661621,579.743408 676.193298,580.440002 675.434875,581.276611 
z"/>
<path fill="#080807" opacity="1.000000" stroke="none" 
	d="
M506.326599,282.673157 
	C506.624207,282.386902 507.259491,282.188263 507.954285,282.235382 
	C507.563965,282.574341 507.114136,282.667542 506.326599,282.673157 
z"/>
<path fill="#080807" opacity="1.000000" stroke="none" 
	d="
M496.227814,283.327820 
	C496.572632,282.994019 497.160522,282.777405 497.869659,282.768311 
	C497.484222,283.132263 496.977570,283.288635 496.227814,283.327820 
z"/>
<path fill="#050504" opacity="1.000000" stroke="none" 
	d="
M694.943481,353.716858 
	C694.527039,354.008636 694.090698,354.005432 693.327209,354.000488 
	C693.129395,353.470886 693.258789,352.942993 693.601746,352.240234 
	C694.184753,352.517517 694.554199,352.969696 694.943481,353.716858 
z"/>
<path fill="#050504" opacity="1.000000" stroke="none" 
	d="
M703.749023,371.725342 
	C703.313049,371.460052 702.892944,370.915253 702.677856,370.206665 
	C703.176941,370.510559 703.470947,370.978210 703.749023,371.725342 
z"/>
<path fill="#030303" opacity="1.000000" stroke="none" 
	d="
M706.878357,379.709900 
	C706.417114,379.437958 705.990723,378.875153 705.790771,378.152649 
	C706.315918,378.468323 706.614502,378.943695 706.878357,379.709900 
z"/>
<path fill="#080807" opacity="1.000000" stroke="none" 
	d="
M363.452454,309.453674 
	C363.340027,310.060944 362.936188,310.809113 362.293457,311.353760 
	C362.423370,310.631683 362.792236,310.113098 363.452454,309.453674 
z"/>
<path fill="#030303" opacity="1.000000" stroke="none" 
	d="
M464.356262,290.387665 
	C464.628326,290.021820 465.249176,289.617706 465.932465,289.514618 
	C465.564941,289.993530 465.135010,290.171448 464.356262,290.387665 
z"/>
<path fill="#030303" opacity="1.000000" stroke="none" 
	d="
M708.962524,520.713562 
	C708.330688,520.685242 707.871643,520.370361 707.412537,520.055481 
	C707.851746,519.739441 708.291016,519.423462 709.040588,519.116394 
	C709.278992,519.559204 709.207153,519.993103 708.962524,520.713562 
z"/>
<path fill="#080807" opacity="1.000000" stroke="none" 
	d="
M476.571228,249.180756 
	C476.710449,249.744492 476.764893,250.325485 476.819336,250.906494 
	C476.689362,250.926285 476.559357,250.946091 476.429382,250.965897 
	C476.335907,250.596664 476.242432,250.227448 476.231140,249.526855 
	C476.313385,249.195511 476.486420,249.198013 476.571228,249.180756 
z"/>
<path fill="#080807" opacity="1.000000" stroke="none" 
	d="
M404.336060,303.574341 
	C402.849274,303.776459 401.672119,303.776459 400.494934,303.776459 
	C400.320770,303.306305 400.146637,302.836151 399.972473,302.365997 
	C402.530396,300.520477 405.088287,298.674927 407.646210,296.829376 
	C407.997894,297.188202 408.349579,297.546997 408.701233,297.905792 
	C407.349365,299.727936 405.997498,301.550049 404.336060,303.574341 
z"/>
<path fill="#030303" opacity="1.000000" stroke="none" 
	d="
M395.339050,315.074951 
	C397.038147,313.968811 398.406006,312.969971 399.773865,311.971130 
	C400.222198,312.278259 400.670563,312.585419 401.118927,312.892578 
	C399.957458,314.820099 398.795990,316.747650 396.683105,320.254181 
	C395.845184,317.717377 395.426483,316.449799 395.339050,315.074951 
z"/>
<path fill="#080807" opacity="1.000000" stroke="none" 
	d="
M424.472229,297.684387 
	C423.420929,298.261414 422.521393,298.538177 421.621857,298.814972 
	C421.581085,298.169556 421.540314,297.524139 421.499573,296.878754 
	C422.541016,297.047180 423.582458,297.215637 424.472229,297.684387 
z"/>
<path fill="#080807" opacity="1.000000" stroke="none" 
	d="
M377.537415,314.975098 
	C378.484772,314.505920 379.428223,314.364166 380.371704,314.222382 
	C380.383759,314.685059 380.395844,315.147736 380.407928,315.610443 
	C379.449799,315.507782 378.491669,315.405151 377.537415,314.975098 
z"/>
<path fill="#080807" opacity="1.000000" stroke="none" 
	d="
M415.800385,295.733734 
	C415.012787,295.932159 414.273773,295.807831 413.534729,295.683502 
	C413.609650,295.265930 413.684570,294.848358 413.759460,294.430786 
	C414.455994,294.757538 415.152466,295.084259 415.800385,295.733734 
z"/>
<path fill="#050505" opacity="1.000000" stroke="none" 
	d="
M409.496246,305.672180 
	C410.036530,306.014465 410.360382,306.569977 410.684204,307.125488 
	C410.407135,307.251801 410.130096,307.378113 409.853027,307.504425 
	C409.661957,306.964752 409.470886,306.425110 409.496246,305.672180 
z"/>
<path fill="#080807" opacity="1.000000" stroke="none" 
	d="
M397.460846,307.613037 
	C397.345886,308.057892 397.065674,308.330475 396.767670,308.582031 
	C396.760040,308.588470 396.557281,308.363708 396.445526,308.246796 
	C396.728088,307.977234 397.010681,307.707642 397.460846,307.613037 
z"/>
<path fill="#080807" opacity="1.000000" stroke="none" 
	d="
M399.460907,298.613281 
	C399.345978,299.058075 399.065765,299.330719 398.767822,299.582275 
	C398.760223,299.588684 398.557465,299.363892 398.445709,299.246948 
	C398.728241,298.977417 399.010773,298.707886 399.460907,298.613281 
z"/>
<path fill="#F9F9F4" opacity="1.000000" stroke="none" 
	d="
M352.928192,766.820312 
	C355.235657,766.830566 357.067108,766.746277 358.884460,766.869324 
	C363.369446,767.173279 366.848206,770.684570 366.858917,774.804810 
	C366.869232,778.778015 364.198822,781.250671 359.142731,781.414307 
	C353.348511,781.601929 347.543518,781.457886 341.408051,781.457886 
	C341.408051,776.655640 341.408051,772.102356 341.408051,766.820190 
	C344.993469,766.820190 348.719604,766.820190 352.928192,766.820312 
z"/>
<path fill="#F7F7F1" opacity="1.000000" stroke="none" 
	d="
M341.055298,744.714172 
	C341.058350,740.929810 341.058350,737.610291 341.058350,733.734314 
	C346.173859,733.734314 351.123535,733.327209 355.971710,733.854248 
	C360.398956,734.335449 363.614105,738.852844 362.960846,742.760681 
	C362.209991,747.252197 358.950684,748.493530 354.898712,748.490906 
	C351.237762,748.488525 347.571808,748.378113 343.917511,748.534912 
	C341.310760,748.646851 340.786041,747.338501 341.055298,744.714172 
z"/>
<path fill="#FBFBF5" opacity="1.000000" stroke="none" 
	d="
M632.257812,762.211182 
	C630.341370,747.817322 637.616089,736.494751 650.113831,733.851501 
	C661.292542,731.487183 673.211182,738.579163 676.699951,749.670959 
	C680.114380,760.526611 674.374939,773.361023 663.990601,778.091248 
	C653.854736,782.708252 640.684387,778.392883 635.002991,768.506775 
	C633.937195,766.652222 633.228699,764.592407 632.257812,762.211182 
z"/>
<path fill="#050504" opacity="1.000000" stroke="none" 
	d="
M624.396240,310.000793 
	C622.679932,310.329834 621.166687,310.362305 620.087524,311.063110 
	C618.666748,311.985809 617.645081,313.506683 616.298889,314.578247 
	C616.093750,314.741547 614.459167,313.640930 614.508179,313.511322 
	C615.176819,311.742218 615.682068,309.724457 616.907837,308.395264 
	C618.908875,306.225342 621.408630,304.515411 623.848999,302.305695 
	C624.000000,302.000000 624.500000,302.000000 624.788574,302.346436 
	C625.992554,303.403900 626.907959,304.114868 627.823364,304.825867 
	C627.882263,303.883911 627.941162,302.941956 628.000000,302.000000 
	C629.417053,301.046326 630.834106,300.092621 632.418274,299.026428 
	C632.053589,298.261292 631.181458,297.252869 631.225647,296.286407 
	C631.267334,295.375122 632.089600,294.134918 632.909485,293.730133 
	C633.671143,293.354126 635.452026,293.529968 635.802429,294.083893 
	C637.779236,297.208679 638.919922,300.891693 643.382324,301.800323 
	C644.160217,301.958710 644.414001,304.691223 644.579956,306.617401 
	C643.500000,307.000000 642.750000,307.000000 641.968628,306.708374 
	C641.291443,306.277802 640.645752,306.138916 639.620361,305.955994 
	C637.241455,306.180206 634.425293,305.750275 633.448975,306.892670 
	C632.217651,308.333405 630.554993,311.290192 634.000000,313.000000 
	C632.274902,318.883636 632.274902,318.883636 625.278259,315.204529 
	C626.505554,314.098602 627.643311,313.073395 628.781067,312.048157 
	C627.451538,311.365997 626.122070,310.683807 624.396240,310.000793 
z"/>
<path fill="#040404" opacity="1.000000" stroke="none" 
	d="
M634.353394,313.005341 
	C630.554993,311.290192 632.217651,308.333405 633.448975,306.892670 
	C634.425293,305.750275 637.241455,306.180206 639.788879,306.199951 
	C640.891418,306.658569 641.445679,306.829285 642.000000,307.000000 
	C642.750000,307.000000 643.500000,307.000000 644.625000,307.000000 
	C649.211426,307.779572 653.422913,308.559174 657.817139,309.669373 
	C657.562439,310.963654 657.124817,311.927277 656.343628,312.945465 
	C651.461792,312.696960 653.798950,316.712646 652.009766,318.517700 
	C649.520691,313.791656 646.408203,311.233978 641.000000,313.000000 
	C640.094727,313.474426 639.189453,313.948822 637.892090,314.711609 
	C637.500000,315.000000 637.000000,315.000000 637.000000,315.000000 
	C636.235596,314.336914 635.471191,313.673798 634.353394,313.005341 
z"/>
<path fill="#0E0E0D" opacity="1.000000" stroke="none" 
	d="
M562.000000,264.998779 
	C562.991028,267.845337 562.488831,269.727997 558.768494,269.854889 
	C557.501892,267.045410 558.061096,265.402435 561.613647,265.007935 
	C562.000000,265.000000 562.000000,264.998779 562.000000,264.998779 
z"/>
<path fill="#0E0E0D" opacity="1.000000" stroke="none" 
	d="
M553.000000,256.999390 
	C552.225281,257.978943 551.052856,259.911469 550.741638,259.781525 
	C548.993835,259.051788 547.453491,257.825073 546.412476,255.865936 
	C548.346313,256.243988 550.280212,256.622040 552.607056,257.000671 
	C553.000000,257.001221 553.000000,257.000000 553.000000,256.999390 
z"/>
<path fill="#040404" opacity="1.000000" stroke="none" 
	d="
M609.148926,288.601654 
	C609.504150,290.723297 609.504150,292.766663 609.504150,294.810059 
	C608.724121,294.704376 607.944092,294.598694 607.164062,294.493011 
	C607.707275,292.503143 608.250427,290.513275 609.148926,288.601654 
z"/>
<path fill="#0E0E0D" opacity="1.000000" stroke="none" 
	d="
M568.779907,268.926483 
	C567.763062,269.773895 566.839539,270.296326 565.916016,270.818726 
	C565.613647,270.623932 565.311340,270.429108 565.008972,270.234314 
	C565.457275,269.132812 565.905640,268.031342 566.353943,266.929840 
	C567.193726,267.487061 568.033447,268.044281 568.779907,268.926483 
z"/>
<path fill="#040404" opacity="1.000000" stroke="none" 
	d="
M627.625000,302.000000 
	C627.941162,302.941956 627.882263,303.883911 627.823364,304.825867 
	C626.907959,304.114868 625.992554,303.403900 625.038574,302.346436 
	C625.750000,302.000000 626.500000,302.000000 627.625000,302.000000 
z"/>
<path fill="#0E0E0D" opacity="1.000000" stroke="none" 
	d="
M539.451416,261.759277 
	C538.399963,262.283661 537.510132,262.528381 536.620300,262.773132 
	C536.570068,262.232605 536.519897,261.692078 536.469727,261.151550 
	C537.517517,261.260925 538.565247,261.370300 539.451416,261.759277 
z"/>
<path fill="#0E0E0D" opacity="1.000000" stroke="none" 
	d="
M524.000000,261.000610 
	C524.507690,261.302368 525.015320,261.603516 525.523010,261.904633 
	C525.342407,262.112793 525.161804,262.320953 524.981201,262.529114 
	C524.677856,262.207672 524.374573,261.886230 524.035645,261.281799 
	C524.000000,260.998779 524.000000,261.000000 524.000000,261.000610 
z"/>
<path fill="#0E0E0D" opacity="1.000000" stroke="none" 
	d="
M541.613464,257.538727 
	C542.058167,257.653625 542.327942,257.936035 542.597778,258.218445 
	C542.480835,258.330078 542.363892,258.441742 542.246948,258.553375 
	C541.977478,258.270996 541.708008,257.988617 541.613464,257.538727 
z"/>
<path fill="#0E0E0D" opacity="1.000000" stroke="none" 
	d="
M578.045349,270.399353 
	C578.284973,270.792419 578.283203,271.183228 578.253235,271.571838 
	C578.252441,271.582611 577.949463,271.570099 577.787415,271.568481 
	C577.791626,271.177887 577.795837,270.787323 578.045349,270.399353 
z"/>
<path fill="#0E0E0D" opacity="1.000000" stroke="none" 
	d="
M528.956421,263.601715 
	C528.716553,263.208466 528.718262,262.817657 528.748047,262.429047 
	C528.748901,262.418365 529.051880,262.430847 529.213989,262.432526 
	C529.209961,262.823181 529.205872,263.213837 528.956421,263.601715 
z"/>
<path fill="#0E0E0D" opacity="1.000000" stroke="none" 
	d="
M557.035461,260.283020 
	C557.507874,260.301422 558.015686,260.602844 558.523560,260.904266 
	C558.343079,261.112762 558.162598,261.321259 557.982117,261.529724 
	C557.678406,261.208496 557.374634,260.887268 557.035461,260.283020 
z"/>
<path fill="#0E0E0D" opacity="1.000000" stroke="none" 
	d="
M562.000000,265.000610 
	C562.346130,264.752869 562.692200,264.504517 563.038330,264.256165 
	C563.124695,264.378815 563.211060,264.501495 563.297424,264.624146 
	C563.024048,264.740723 562.750732,264.857269 562.238647,264.986298 
	C562.000000,264.998779 562.000000,265.000000 562.000000,265.000610 
z"/>
<path fill="#0E0E0D" opacity="1.000000" stroke="none" 
	d="
M494.450195,257.532166 
	C494.417694,257.477509 494.482727,257.586792 494.450195,257.532166 
z"/>
<path fill="#0E0E0D" opacity="1.000000" stroke="none" 
	d="
M537.530762,265.548035 
	C537.477051,265.579834 537.584473,265.516266 537.530762,265.548035 
z"/>
<path fill="#030303" opacity="1.000000" stroke="none" 
	d="
M482.110443,267.222168 
	C482.000854,267.004883 482.499237,267.002014 482.748413,267.002838 
	C482.997559,267.003662 482.999146,267.501831 482.999573,267.750916 
	C482.679016,267.897980 482.419037,267.711151 482.110443,267.222168 
z"/>
<path fill="#050504" opacity="1.000000" stroke="none" 
	d="
M641.056030,313.344086 
	C646.408203,311.233978 649.520691,313.791656 651.731018,318.777496 
	C650.957947,319.397705 649.458130,320.443787 648.950195,320.085083 
	C646.202026,318.144623 643.699280,315.856476 641.056030,313.344086 
z"/>
<path fill="#050504" opacity="1.000000" stroke="none" 
	d="
M641.400146,330.954590 
	C641.792725,330.715302 642.183167,330.717102 642.571411,330.747192 
	C642.582397,330.748047 642.569885,331.050659 642.568359,331.212585 
	C642.178162,331.208282 641.787964,331.203979 641.400146,330.954590 
z"/>
<path fill="#050504" opacity="1.000000" stroke="none" 
	d="
M636.782349,315.162476 
	C637.000000,315.000000 637.500000,315.000000 637.750000,315.000000 
	C637.576111,315.509827 637.152222,316.019653 636.728271,316.529480 
	C636.673767,316.127960 636.619202,315.726471 636.782349,315.162476 
z"/>
<path fill="#050504" opacity="1.000000" stroke="none" 
	d="
M623.451782,321.531097 
	C623.420227,321.477478 623.483337,321.584717 623.451782,321.531097 
z"/>
<path fill="#030303" opacity="1.000000" stroke="none" 
	d="
M438.248901,284.279480 
	C439.630707,283.683044 440.964569,283.446167 442.496796,283.174011 
	C443.188080,281.958954 444.039459,280.462494 444.890839,278.966034 
	C445.425476,278.974579 445.960144,278.983124 446.494812,278.991669 
	C446.706055,280.764832 447.456055,282.693085 447.000854,284.274384 
	C446.337433,286.578796 444.465118,287.535309 441.972290,286.173950 
	C440.788727,285.527618 439.462524,285.142456 438.248901,284.279480 
z"/>
<path fill="#0E0E0D" opacity="1.000000" stroke="none" 
	d="
M441.174103,274.858276 
	C441.146729,275.591187 440.903015,276.110565 440.659302,276.629913 
	C440.239899,276.214844 439.820526,275.799744 439.401123,275.384674 
	C439.920013,275.138031 440.438904,274.891418 441.174103,274.858276 
z"/>
<path fill="#0E0E0D" opacity="1.000000" stroke="none" 
	d="
M472.670319,267.502533 
	C473.012329,266.962372 473.567627,266.638580 474.122894,266.314758 
	C474.249359,266.591522 474.375793,266.868317 474.502228,267.145111 
	C473.962677,267.336365 473.423157,267.527618 472.670319,267.502533 
z"/>
<path fill="#0E0E0D" opacity="1.000000" stroke="none" 
	d="
M475.999390,261.999390 
	C475.695770,262.508118 475.392761,263.017456 475.089783,263.526794 
	C474.880920,263.344696 474.672028,263.162598 474.463074,262.980469 
	C474.786133,262.676727 475.109192,262.372955 475.716736,262.035217 
	C476.001221,262.001221 476.000000,262.000000 475.999390,261.999390 
z"/>
<path fill="#0E0E0D" opacity="1.000000" stroke="none" 
	d="
M449.468689,271.450684 
	C449.523071,271.418396 449.414276,271.482971 449.468689,271.450684 
z"/>
<path fill="#080807" opacity="1.000000" stroke="none" 
	d="
M468.000000,285.000000 
	C468.556030,281.425385 470.906982,281.878174 473.781708,283.584229 
	C472.050964,284.129669 470.320221,284.675079 468.294739,285.109711 
	C468.000000,284.998901 468.000000,285.000000 468.000000,285.000000 
z"/>
<path fill="#080807" opacity="1.000000" stroke="none" 
	d="
M520.045532,274.399506 
	C520.285217,274.792419 520.283447,275.183258 520.253479,275.571930 
	C520.252625,275.582825 519.949646,275.570404 519.787598,275.568878 
	C519.791748,275.178314 519.795898,274.787720 520.045532,274.399506 
z"/>
<path fill="#080807" opacity="1.000000" stroke="none" 
	d="
M443.988159,265.531738 
	C443.591339,264.950531 443.493591,264.373749 443.395874,263.796967 
	C443.804108,263.802277 444.212341,263.807587 444.620575,263.812897 
	C444.509460,264.387329 444.398376,264.961731 443.988159,265.531738 
z"/>
<path fill="#080807" opacity="1.000000" stroke="none" 
	d="
M465.399200,255.955109 
	C465.792145,255.715576 466.183014,255.717361 466.571716,255.747437 
	C466.582703,255.748276 466.570312,256.051147 466.568787,256.213196 
	C466.178131,256.208954 465.787506,256.204681 465.399200,255.955109 
z"/>
<path fill="#080807" opacity="1.000000" stroke="none" 
	d="
M560.955261,257.599487 
	C560.715820,257.206757 560.717590,256.816345 560.747437,256.428131 
	C560.748169,256.417480 561.191833,256.422791 561.192383,256.432739 
	C561.212219,256.821655 561.204468,257.212006 560.955261,257.599487 
z"/>
<path fill="#080807" opacity="1.000000" stroke="none" 
	d="
M641.968628,306.708374 
	C641.445679,306.829285 640.891418,306.658569 640.168579,306.243927 
	C640.645752,306.138916 641.291443,306.277802 641.968628,306.708374 
z"/>
</svg>