<svg version="1.1" id="Layer_1" xmlns="http://www.w3.org/2000/svg" xmlns:xlink="http://www.w3.org/1999/xlink" x="0px" y="0px"
	 width="100%" viewBox="0 0 1024 1024" enable-background="new 0 0 1024 1024" xml:space="preserve">
<path fill="#000000" opacity="1.000000" stroke="none" 
	d="
M868.642395,605.515015 
	C856.244263,649.991882 836.857178,690.582092 809.851379,727.638245 
	C784.577942,762.317322 754.682922,792.190125 719.312134,816.406128 
	C674.231201,847.270203 624.574463,866.803162 570.571289,875.447571 
	C544.962341,879.546692 519.220703,881.458008 493.396820,879.944519 
	C454.602905,877.670837 416.994629,869.460510 380.677277,855.354370 
	C331.118927,836.105408 287.853119,807.334534 250.939194,769.256104 
	C203.049911,719.856201 170.851013,661.562622 154.405411,594.693909 
	C146.600998,562.960754 143.776947,530.667725 145.026657,498.077820 
	C146.976364,447.233673 158.368103,398.568268 180.717865,352.752258 
	C201.014038,311.145935 228.319565,274.514587 262.047302,242.861755 
	C306.036194,201.579056 357.075592,172.350250 415.031097,155.369843 
	C446.078033,146.273392 477.902130,142.391388 510.148468,142.148605 
	C560.935791,141.766220 609.841797,151.351349 656.322754,171.947647 
	C714.419678,197.691162 762.907471,235.868530 801.938232,286.075745 
	C832.783386,325.753235 855.435425,369.505951 868.471802,418.139465 
	C875.433044,444.109131 879.512146,470.456146 880.527832,497.373993 
	C881.906799,533.918152 878.077393,569.798340 868.642395,605.515015 
M229.978790,672.561035 
	C255.163864,715.715149 288.587189,751.248352 329.688141,779.503113 
	C375.176117,810.773743 425.452820,829.271179 480.418060,834.889771 
	C511.429169,838.059692 542.438049,837.190613 572.899048,831.113708 
	C644.307800,816.867615 705.115479,783.522095 753.968750,728.764893 
	C786.321594,692.502197 810.136841,651.604614 824.854309,605.398499 
	C840.023743,557.773438 843.494812,509.282898 834.891296,459.971252 
	C830.086060,432.429962 821.726379,406.009583 810.266724,380.544220 
	C794.740479,346.042297 774.054077,314.998047 747.774597,287.746979 
	C714.942566,253.701019 676.620361,227.513855 633.029907,209.337418 
	C576.007019,185.559875 516.789856,180.046951 456.179077,190.903000 
	C385.371857,203.585342 326.157959,237.904984 276.883209,289.739807 
	C252.532684,315.355469 231.874069,343.803467 216.791428,375.863739 
	C200.418411,410.666870 190.535965,447.329346 188.122879,485.859741 
	C186.632034,509.664581 186.092896,533.512268 189.627136,557.135986 
	C195.718933,597.854980 208.583420,636.348389 229.978790,672.561035 
z"/>
<path fill="#000000" opacity="1.000000" stroke="none" 
	d="
M614.364136,598.183105 
	C616.575928,590.612366 615.722473,583.239319 615.737427,575.942444 
	C615.800903,544.956238 615.701843,513.969727 615.732117,482.983368 
	C615.738464,476.488861 617.158386,470.292847 622.006897,465.611908 
	C627.297729,460.503967 633.658203,458.617218 640.859802,460.948090 
	C648.863281,463.538452 653.623413,469.104553 655.268616,477.318481 
	C656.587830,483.904877 656.165100,490.587921 656.233032,497.241241 
	C656.253052,499.202393 656.236084,501.163940 656.713257,503.514648 
	C673.246216,470.920776 698.715515,452.659943 735.857361,453.791748 
	C756.148926,454.410126 774.072449,462.094116 788.010925,476.857147 
	C821.012451,511.810791 818.318848,563.262451 781.617493,593.072815 
	C760.809631,609.973877 736.562134,614.669922 710.552856,607.371582 
	C684.730835,600.125854 667.976501,582.517151 657.217346,558.412903 
	C656.837402,558.564331 656.457520,558.715759 656.077576,558.867188 
	C656.077576,564.606995 656.063477,570.346802 656.080261,576.086487 
	C656.127869,592.337524 655.003052,608.255615 647.309143,623.184753 
	C632.125122,652.647522 590.855408,664.115784 563.858582,645.862488 
	C555.989441,640.541992 550.177124,633.684937 550.656006,623.254944 
	C551.296265,609.307617 566.288269,601.007568 578.290161,608.043640 
	C579.868835,608.969116 581.359680,610.044373 582.890503,611.051270 
	C594.558716,618.726196 606.476196,615.398621 612.572571,602.735962 
	C613.220154,601.390869 613.682556,599.956604 614.364136,598.183105 
M738.017883,493.241821 
	C706.197327,489.032196 689.502197,517.696655 693.287415,538.206726 
	C698.329224,565.526245 724.995667,577.395203 747.544067,567.987183 
	C764.376465,560.963989 772.607178,545.012024 770.705261,525.683411 
	C769.235596,510.746582 755.849365,497.123901 738.017883,493.241821 
z"/>
<path fill="#000000" opacity="1.000000" stroke="none" 
	d="
M294.834961,399.826294 
	C321.567322,405.264252 338.813019,428.542114 339.196564,452.474304 
	C339.312988,459.738892 337.517273,466.660187 334.167511,473.142761 
	C333.263092,474.892975 332.358673,476.643158 331.254822,478.779327 
	C334.331909,480.329681 337.179657,481.597107 339.866638,483.143860 
	C372.788177,502.095154 379.616943,543.608643 362.470276,573.485229 
	C348.381927,598.032959 326.776367,610.021790 298.866302,610.871033 
	C283.881714,611.326904 268.866699,611.323547 253.878708,610.968201 
	C240.149429,610.642700 229.425812,604.996460 224.043869,591.523865 
	C222.278091,587.103577 222.061127,582.412170 222.051819,577.769104 
	C221.952347,528.109192 221.900253,478.449127 221.912308,428.789124 
	C221.916931,409.710236 233.047028,398.646820 252.007034,398.632660 
	C261.505890,398.625580 271.004974,398.687012 280.503540,398.635529 
	C285.179352,398.610199 289.827148,398.741302 294.834961,399.826294 
M261.465454,532.902710 
	C261.630280,544.201111 261.883942,555.499268 261.908386,566.797974 
	C261.916229,570.417725 263.200745,571.785278 266.901978,571.726074 
	C278.046661,571.547974 289.197266,571.763245 300.342865,571.617371 
	C308.837463,571.506226 316.177979,568.481689 322.286469,562.404724 
	C331.537781,553.201172 334.702484,539.500183 330.029755,527.970703 
	C325.298523,516.296875 314.443024,509.314728 300.870636,509.268188 
	C289.889618,509.230530 278.902069,509.455566 267.930359,509.129395 
	C263.281830,508.991241 261.697632,510.681671 261.775513,515.098206 
	C261.874878,520.730835 261.610565,526.369934 261.465454,532.902710 
M276.463074,437.374512 
	C273.136963,437.403809 269.810852,437.437042 266.484711,437.461212 
	C263.173126,437.485291 261.572998,439.276978 261.616119,442.457428 
	C261.731110,450.934784 261.956421,459.410583 262.107330,467.887543 
	C262.148834,470.217316 262.904236,471.681091 265.579437,471.647614 
	C271.565491,471.572693 277.578003,471.959320 283.534088,471.527863 
	C292.617462,470.869843 300.060120,463.564270 300.586853,455.429413 
	C301.086578,447.711670 294.794312,439.710754 286.352875,437.846588 
	C283.481964,437.212585 280.406525,437.504608 276.463074,437.374512 
z"/>
<path fill="#000000" opacity="1.000000" stroke="none" 
	d="
M559.133179,576.045471 
	C527.511353,619.338074 471.269012,630.278931 426.881012,601.063477 
	C402.135864,584.776672 388.528442,560.914124 385.636780,531.277466 
	C384.048584,515.000000 384.860413,498.652161 384.834900,482.338531 
	C384.817963,471.524231 390.473389,463.747559 399.512512,460.763000 
	C412.102112,456.606110 425.078583,466.530304 425.284790,480.737366 
	C425.487885,494.728546 425.331879,508.724701 425.364410,522.718628 
	C425.423523,548.117859 442.349365,569.266846 467.515381,575.421082 
	C491.414734,581.265625 516.466370,570.070251 528.237244,548.482422 
	C532.810913,540.094543 535.027954,531.316345 535.037231,521.724670 
	C535.051208,507.243286 534.278198,492.737427 535.619690,478.277710 
	C536.631470,467.373444 544.365173,459.799500 554.297913,459.746490 
	C564.294434,459.693146 573.657776,467.635132 574.167480,477.918915 
	C575.180115,498.351135 576.099182,518.840576 573.347839,539.227417 
	C571.561462,552.464600 566.477600,564.521973 559.133179,576.045471 
z"/>
<path fill="#000000" opacity="1.000000" stroke="none" 
	d="
M488.869141,348.944580 
	C488.860321,323.459961 488.726471,298.464966 488.922363,273.472565 
	C488.978210,266.346130 486.908691,260.355499 481.909393,255.431137 
	C473.708679,247.353455 469.697906,237.834625 470.754211,226.176239 
	C471.203491,221.217804 470.740051,216.182953 470.864777,211.187149 
	C471.016083,205.125595 474.714783,200.989517 479.687897,201.070892 
	C484.718140,201.153198 488.214264,205.246719 488.315460,211.337189 
	C488.395721,216.168076 488.338348,221.001266 488.339264,225.833435 
	C488.342316,242.053436 501.524841,253.150284 517.556763,250.427063 
	C530.998657,248.143799 538.602966,239.196472 538.673035,225.555771 
	C538.698669,220.557236 538.529053,215.552200 538.730042,210.561478 
	C538.968018,204.654572 542.091492,201.438446 547.165161,201.432755 
	C552.342102,201.426941 555.101379,204.358795 555.387634,210.549667 
	C555.695251,217.202164 555.870483,223.863678 555.951660,230.523087 
	C556.069153,240.168823 552.841919,248.564728 545.706726,255.129395 
	C539.619751,260.729614 537.262268,267.501740 537.310547,275.653412 
	C537.465393,301.800568 537.339050,327.949280 537.358826,354.097412 
	C537.360840,356.793243 537.353638,359.470825 535.894470,361.834656 
	C533.820312,365.194855 530.855164,367.251343 526.782654,366.750458 
	C522.815247,366.262512 519.897400,364.048828 518.916016,360.072845 
	C518.284851,357.515625 518.013123,354.811279 517.996277,352.170227 
	C517.876038,333.342468 517.863159,314.514008 517.815308,295.685791 
	C517.811890,294.352844 517.873962,293.014648 517.778992,291.687958 
	C517.554260,288.548126 517.031372,285.333435 512.947388,285.453217 
	C509.088623,285.566376 508.173370,288.419678 508.176880,291.771088 
	C508.198090,311.932770 508.197540,332.094452 508.207397,352.256134 
	C508.208618,354.755615 508.247192,357.243805 507.432861,359.671997 
	C505.959595,364.065063 503.067841,366.975861 498.365875,366.912720 
	C493.641266,366.849243 490.872620,363.828033 489.578003,359.368652 
	C488.628265,356.097198 488.994843,352.753540 488.869141,348.944580 
z"/>
<path fill="#000000" opacity="1.000000" stroke="none" 
	d="
M515.689087,746.781982 
	C510.427643,753.611389 510.571014,757.862488 516.272827,763.723633 
	C520.218811,767.779724 524.340088,771.667053 528.427002,775.583862 
	C531.226868,778.267151 532.718506,781.520813 532.684937,785.369080 
	C532.602173,794.855408 532.620300,804.349243 532.216064,813.823792 
	C531.922058,820.715881 525.798035,824.374695 520.427979,821.199463 
	C516.875122,819.098633 515.881165,815.572021 515.802979,811.784973 
	C515.675842,805.625916 515.617371,799.458679 515.798035,793.302734 
	C515.893494,790.050354 514.903076,787.554810 512.568237,785.323242 
	C508.523041,781.456909 504.881775,777.152344 499.145782,773.035156 
	C499.145782,777.479004 499.149323,780.878113 499.145050,784.277222 
	C499.134369,792.769897 499.100067,801.262634 499.118225,809.755249 
	C499.124756,812.809448 498.723541,815.736816 496.999695,818.346191 
	C495.076385,821.257507 492.320038,822.503723 488.887756,822.257385 
	C485.533295,822.016602 483.422272,820.048462 482.099976,817.114868 
	C480.981750,814.633911 480.796570,812.002625 480.799133,809.306091 
	C480.818176,789.322693 480.683014,769.338562 480.834290,749.356445 
	C480.877594,743.635925 479.289246,738.617249 475.103210,734.995300 
	C460.830475,722.645569 461.904480,706.520996 463.717194,690.229980 
	C464.222351,685.690186 467.799652,683.223938 472.164520,683.505615 
	C476.700714,683.798279 479.843994,686.686340 480.131927,691.540405 
	C480.437073,696.684875 480.194946,701.860291 480.241791,707.021790 
	C480.345673,718.469299 490.408173,728.493164 501.958282,728.688477 
	C513.625916,728.885803 524.146118,719.311829 524.656860,707.847290 
	C524.878967,702.860535 524.641724,697.854797 524.774109,692.862000 
	C524.931580,686.926086 527.914062,683.670715 532.979736,683.642456 
	C538.384583,683.612305 541.254150,686.825623 541.319336,693.117310 
	C541.374573,698.445740 541.067139,703.791016 541.387756,709.100647 
	C541.998840,719.220215 537.920227,727.274719 530.785522,733.923645 
	C526.043823,738.342651 520.903809,742.334229 515.689087,746.781982 
z"/>
<path fill="#000000" opacity="1.000000" stroke="none" 
	d="
M333.934937,741.999939 
	C333.867249,731.016052 333.805908,720.532104 333.709717,710.048462 
	C333.707520,709.806824 333.311218,709.568909 333.009216,709.228271 
	C330.361816,709.369446 329.369995,711.810730 327.739868,713.297058 
	C323.174500,717.459839 319.150391,717.706177 314.494446,713.631531 
	C311.112000,710.671326 307.950195,707.477722 305.504852,703.635071 
	C303.108032,699.868713 304.177002,696.631531 306.913574,693.694031 
	C309.790283,690.606140 313.085083,691.277893 315.854401,693.589172 
	C318.799835,696.047363 320.734711,695.289185 322.892181,692.702209 
	C324.700745,690.533630 326.744110,688.552795 328.763275,686.570007 
	C331.233856,684.144043 334.160706,682.803467 337.721069,682.815491 
	C347.548187,682.848572 357.376038,682.832397 367.202759,682.744324 
	C370.956787,682.710693 374.032715,684.072510 376.535828,686.760437 
	C386.749359,697.728088 396.936188,708.720581 407.124420,719.711670 
	C407.575378,720.198181 407.940948,720.763428 408.350891,721.288330 
	C411.237701,724.984619 411.181335,728.846436 408.139282,732.199341 
	C405.006378,735.652283 401.063934,734.889160 397.714844,732.503174 
	C393.091431,729.209473 389.419495,724.829773 385.563538,720.685303 
	C380.851105,715.620300 376.323792,710.355530 370.740295,705.994995 
	C368.844360,708.670837 369.362976,711.242554 369.358887,713.676758 
	C369.326233,733.164368 369.361115,752.652100 369.360199,772.139832 
	C369.360107,773.802612 369.448151,775.501343 369.153748,777.121277 
	C368.381287,781.371582 364.714294,784.556152 360.770691,784.205261 
	C356.353729,783.812317 353.282166,781.593323 352.621185,776.882629 
	C351.437103,768.443237 352.305450,759.926636 351.171967,751.445618 
	C351.171967,754.436462 351.315948,757.435852 351.140137,760.416321 
	C350.833923,765.606995 347.342834,769.247498 342.862427,769.305481 
	C337.875824,769.370056 334.224670,765.942566 334.016022,760.486267 
	C333.787048,754.498535 333.946716,748.495972 333.934937,741.999939 
z"/>
<path fill="#000000" opacity="1.000000" stroke="none" 
	d="
M355.143127,350.503296 
	C348.677002,349.308289 343.214630,350.615143 338.222229,354.255219 
	C333.445709,357.737915 330.664307,362.174622 331.087555,368.230072 
	C331.317444,371.518677 330.755341,374.517090 328.665466,377.148041 
	C323.970642,383.058289 316.363739,382.327667 313.501343,375.336914 
	C310.352142,367.645660 312.485168,360.251465 316.393158,353.407745 
	C319.720795,347.580383 324.641876,342.985321 329.317261,338.245758 
	C335.122528,332.360779 335.642883,319.142883 330.232025,312.754272 
	C325.380066,307.025543 319.856842,301.954590 314.491913,296.725677 
	C311.395935,293.708191 308.311646,290.652985 305.499176,287.376892 
	C301.912415,283.198883 301.848236,277.909851 305.009338,274.751282 
	C308.195404,271.567780 314.215454,271.784668 318.113342,275.636810 
	C323.436279,280.897308 328.467865,286.451630 333.663483,291.842285 
	C337.005646,295.309906 341.095795,297.221222 345.861176,298.125488 
	C353.966095,299.663483 361.084991,298.077118 367.047791,292.266449 
	C372.888611,286.574646 378.482117,280.620697 384.468781,275.089935 
	C388.301819,271.548767 393.067261,271.853333 396.634399,275.178070 
	C400.074738,278.384613 400.268219,283.022430 397.048920,287.274597 
	C396.049957,288.594116 394.904694,289.817200 393.728455,290.985809 
	C387.351471,297.321442 381.030151,303.717163 374.513306,309.906494 
	C370.794678,313.438171 369.303741,317.399109 368.905396,322.623932 
	C368.251862,331.195526 370.249847,337.883545 376.823700,343.837158 
	C384.155914,350.477539 388.811981,358.860046 388.597809,369.326141 
	C388.466492,375.744232 384.528351,381.111786 379.496582,381.103149 
	C374.449524,381.094482 370.613556,376.420258 370.634247,369.838806 
	C370.667145,359.376831 364.735046,353.750488 355.143127,350.503296 
z"/>
<path fill="#000000" opacity="1.000000" stroke="none" 
	d="
M631.499390,305.437927 
	C629.215454,302.955322 626.978455,300.736328 627.072144,297.481171 
	C627.172241,294.002319 628.376160,290.985626 631.816650,289.297028 
	C635.571899,287.453888 639.077515,288.033356 642.005371,290.727844 
	C644.811951,293.310760 647.270996,296.281311 649.793640,299.159637 
	C651.868896,301.527496 653.924438,302.256073 656.595581,299.959473 
	C658.992004,297.899078 661.950806,297.571198 665.049805,297.602020 
	C674.546143,297.696533 684.045288,297.746613 693.540466,297.610321 
	C698.025085,297.545929 702.224731,298.244690 705.781067,301.037933 
	C707.822754,302.641479 709.257690,302.381409 710.862488,300.548523 
	C713.275635,297.792419 715.743591,295.078827 718.292358,292.448059 
	C722.744019,287.853119 728.466187,287.128510 732.023621,290.607300 
	C735.977478,294.473816 735.597839,299.886871 730.965637,304.683105 
	C727.030762,308.757233 722.981018,312.721344 719.081726,316.828705 
	C714.815308,321.322723 709.884583,322.321838 704.053833,320.405151 
	C697.772705,318.340393 697.064636,318.707886 697.426514,324.931976 
	C697.744019,330.392883 695.519104,333.706238 690.842957,336.044067 
	C681.893372,340.518311 673.465454,345.907837 665.023132,351.253052 
	C662.784119,352.670654 660.296326,354.089966 658.751099,356.134552 
	C654.159485,362.209991 648.233643,360.943817 642.472961,359.325134 
	C636.726074,357.710388 633.510376,351.878174 634.392639,346.050293 
	C635.365845,339.621185 639.315918,336.124847 645.832520,335.644836 
	C651.475830,335.229156 656.574219,337.394104 662.295044,339.048157 
	C662.295044,332.427704 662.295044,326.152893 662.295044,319.710785 
	C649.057556,324.423950 641.064636,317.621429 634.121094,308.266327 
	C633.430420,307.335785 632.541565,306.552307 631.499390,305.437927 
z"/>
<path fill="#000000" opacity="1.000000" stroke="none" 
	d="
M600.276001,728.890015 
	C604.574158,728.894043 608.466614,728.459412 612.224609,728.985229 
	C627.264893,731.089478 635.704163,721.673157 643.754456,711.416138 
	C648.069885,705.917786 652.288757,700.339478 656.740051,694.953247 
	C659.735657,691.328552 663.391724,690.563599 667.161316,693.895264 
	C671.840515,698.030762 677.235718,699.120667 683.350891,698.810364 
	C690.493408,698.448059 697.670410,698.683472 704.830688,698.786560 
	C708.984497,698.846313 712.311584,700.519897 713.868469,704.620422 
	C715.741943,709.554504 712.953674,714.376282 707.412781,715.398132 
	C700.653381,716.644592 693.702820,716.529114 686.997253,715.724121 
	C679.583069,714.833923 676.133240,718.939453 672.552551,724.142700 
	C675.026245,726.881165 678.460510,727.363220 681.360657,728.806702 
	C684.339172,730.289246 687.443542,731.540955 690.331848,733.177551 
	C694.418152,735.493042 696.501526,738.969238 696.230469,743.887024 
	C695.965088,748.703857 696.199097,753.545959 696.055786,758.372253 
	C695.879333,764.315186 692.567383,768.246033 687.783203,768.437622 
	C682.811584,768.636597 678.525513,765.092590 679.358826,758.948486 
	C680.772461,748.524963 675.105164,744.866821 666.902405,742.129883 
	C662.499390,740.660706 658.128906,738.826721 654.127563,736.497803 
	C650.330750,734.287842 647.117981,734.770874 644.067139,737.237915 
	C634.342590,745.101562 623.314148,747.822937 610.997437,746.432007 
	C607.049744,745.986145 603.010376,746.381042 599.013611,746.333008 
	C592.535034,746.255066 588.913696,743.322632 588.667480,738.021240 
	C588.426880,732.839539 591.454163,729.834229 597.812622,728.972656 
	C598.469421,728.883606 599.142761,728.916565 600.276001,728.890015 
z"/>
<path fill="#000000" opacity="1.000000" stroke="none" 
	d="
M738.017822,646.021973 
	C748.862061,646.882263 756.831543,651.337708 760.896973,661.438293 
	C764.741516,670.989929 761.896423,681.466003 753.786743,687.800110 
	C745.358582,694.382812 733.700806,694.854187 725.489502,688.944275 
	C717.173950,682.959229 713.156494,673.475586 715.231079,664.727844 
	C717.827087,653.781433 724.640259,648.082947 738.017822,646.021973 
z"/>
<path fill="#000000" opacity="1.000000" stroke="none" 
	d="
M611.765930,414.137268 
	C616.000732,404.195618 623.555420,399.255615 633.678772,399.042450 
	C642.760437,398.851257 650.040710,403.003052 654.711487,411.018372 
	C659.378052,419.026550 658.406189,429.923004 652.551086,437.232239 
	C646.370422,444.947876 636.261841,447.998505 627.046082,444.929291 
	C617.728455,441.826080 611.061890,433.294922 610.566345,423.839905 
	C610.400146,420.669098 610.484253,417.527191 611.765930,414.137268 
z"/>
<path fill="#000000" opacity="1.000000" stroke="none" 
	d="
M685.525269,348.496704 
	C691.388916,344.945770 696.855225,341.431549 702.514587,338.262024 
	C710.779724,333.633118 720.514709,336.475464 723.126892,344.061462 
	C725.458008,350.831207 721.168884,358.796021 713.203735,359.420410 
	C703.468018,360.183594 696.743103,365.951447 689.200134,370.592773 
	C686.084290,372.509979 683.204834,374.820221 680.047913,376.659973 
	C673.051208,380.737335 666.969971,379.570892 663.600403,373.717743 
	C660.323547,368.025665 662.398560,361.957397 669.197876,357.883057 
	C674.477600,354.719299 679.871216,351.745636 685.525269,348.496704 
z"/>
<path fill="#000000" opacity="1.000000" stroke="none" 
	d="
M316.504547,651.198303 
	C324.483459,656.301331 327.835175,663.264282 326.255371,672.225464 
	C324.711426,680.983398 318.688080,685.690552 310.511841,687.639832 
	C302.819916,689.473633 296.350525,686.553772 291.363556,680.775879 
	C285.994934,674.555847 285.088226,667.293823 288.295502,659.781677 
	C291.312103,652.716125 296.895325,649.048950 304.621918,648.656372 
	C308.691406,648.449646 312.578369,648.970032 316.504547,651.198303 
z"/>
<path fill="#000000" opacity="1.000000" stroke="none" 
	d="
M507.279572,241.243195 
	C496.258636,235.928757 494.653076,225.513885 497.978851,218.140991 
	C501.366058,210.631927 509.989380,207.173126 518.145508,209.651108 
	C526.135010,212.078461 531.410217,220.138596 530.179382,228.038055 
	C528.893799,236.289078 521.858582,242.328461 513.507324,242.362000 
	C511.498535,242.370056 509.516357,242.254242 507.279572,241.243195 
z"/>
<path fill="#000000" opacity="1.000000" stroke="none" 
	d="
M663.853394,274.073730 
	C665.161804,260.049622 677.675415,254.315262 688.004211,260.209045 
	C694.007568,263.634705 697.505676,271.571777 695.953369,278.107483 
	C694.240479,285.319214 687.588379,290.652222 680.032166,290.871613 
	C673.420227,291.063599 667.049316,286.284515 664.832764,279.352570 
	C664.332275,277.787109 664.165161,276.115021 663.853394,274.073730 
z"/>
<path fill="#000000" opacity="1.000000" stroke="none" 
	d="
M365.324097,281.953247 
	C357.721466,292.372284 347.429871,293.962219 339.768250,286.217377 
	C333.595673,279.977722 333.013489,270.648804 338.384674,264.047607 
	C343.442871,257.831116 352.269897,256.284882 359.013489,260.434082 
	C366.260315,264.892853 368.979980,273.771271 365.324097,281.953247 
z"/>
<path fill="#000000" opacity="1.000000" stroke="none" 
	d="
M338.801697,653.129150 
	C345.046417,645.212524 354.216736,643.880249 361.339661,649.546387 
	C368.210052,655.011597 369.337555,664.152710 363.958008,670.774658 
	C359.362061,676.432068 349.753601,678.022400 343.489288,674.162476 
	C336.798187,670.039734 334.848236,661.771912 338.801697,653.129150 
z"/>
<path fill="#000000" opacity="1.000000" stroke="none" 
	d="
M667.558960,667.916870 
	C672.812012,660.013672 679.400879,657.911865 686.895752,661.436523 
	C693.360718,664.476807 697.004700,672.145630 695.178162,678.866577 
	C693.174438,686.239197 686.529602,690.850952 679.168823,690.266846 
	C670.215820,689.556458 662.624573,677.624817 667.558960,667.916870 
z"/>
<path fill="#000000" opacity="1.000000" stroke="none" 
	d="
M754.798096,367.399841 
	C759.268738,375.505127 759.086853,381.362976 754.423645,387.130737 
	C750.137085,392.432556 742.745911,394.731995 736.484863,392.709747 
	C729.523682,390.461426 725.852661,385.239929 724.939270,378.415771 
	C724.075317,371.961060 726.993774,366.631714 732.553345,363.252594 
	C738.842285,359.430176 745.242249,359.925201 751.297058,364.062988 
	C752.512146,364.893372 753.484741,366.078613 754.798096,367.399841 
M745.782471,371.764435 
	C744.886230,371.337494 744.027771,370.677429 743.087097,370.525116 
	C739.558411,369.953827 736.673523,371.078796 735.580750,374.667175 
	C734.668518,377.662689 734.796021,380.632477 738.106628,382.462341 
	C741.559509,384.370819 744.370789,382.957214 746.530029,380.449829 
	C748.722046,377.904388 748.553955,374.953857 745.782471,371.764435 
z"/>
<path fill="#000000" opacity="1.000000" stroke="none" 
	d="
M490.431396,712.165833 
	C485.486267,699.880798 491.921997,689.309875 503.334290,690.302612 
	C509.863525,690.870544 515.420715,695.933777 516.338440,702.150940 
	C517.421082,709.485291 513.804565,716.184998 507.360535,718.782471 
	C501.284393,721.231750 495.470612,719.049866 490.431396,712.165833 
z"/>
<path fill="#000000" opacity="1.000000" stroke="none" 
	d="
M401.479645,315.480194 
	C397.984711,319.049164 394.799194,322.428619 391.484039,325.675751 
	C387.785645,329.298309 383.447449,329.694916 380.395386,326.854126 
	C377.506165,324.164795 377.874481,319.549652 381.603485,315.860535 
	C387.600861,309.927399 393.662292,304.049591 399.906281,298.379211 
	C402.888947,295.670471 406.286774,296.567200 408.817261,299.194122 
	C411.500488,301.979553 411.110779,305.226959 408.741577,308.179840 
	C407.915588,309.209290 406.919525,310.104492 405.981567,311.041443 
	C404.574036,312.447449 403.149261,313.836182 401.479645,315.480194 
z"/>
<path fill="#000000" opacity="1.000000" stroke="none" 
	d="
M385.920349,743.660522 
	C385.567596,739.920959 387.110352,737.686829 390.367676,737.242615 
	C393.186523,736.858154 395.140808,738.680298 395.955048,741.239014 
	C396.822571,743.965149 395.663879,746.210815 393.103729,747.402039 
	C389.535736,749.062134 387.517517,746.998657 385.920349,743.660522 
z"/>
</svg>